<svg width="647" height="964" viewBox="0 0 647 964" fill="none" xmlns="http://www.w3.org/2000/svg">
<rect width="647" height="964" fill="white"/>
<line x1="639.52" y1="291.5" x2="326.52" y2="291.5" stroke="#0066a5" stroke-width="5" stroke-dasharray="20 20"/>
<rect x="359.52" y="70" width="36" height="36" fill="#6EA4C6"/>
<rect x="360.02" y="70.5" width="35" height="35" stroke="black" stroke-opacity="0.3"/>
<rect x="394.52" y="70" width="35" height="36" fill="#6EA4C6"/>
<rect x="395.02" y="70.5" width="34" height="35" stroke="black" stroke-opacity="0.3"/>
<rect x="429.52" y="70" width="35" height="36" fill="#6EA4C6"/>
<rect x="430.02" y="70.5" width="34" height="35" stroke="black" stroke-opacity="0.3"/>
<rect x="463.52" y="70" width="36" height="36" fill="#6EA4C6"/>
<rect x="464.02" y="70.5" width="35" height="35" stroke="black" stroke-opacity="0.3"/>
<rect x="498.52" y="70" width="36" height="36" fill="#6EA4C6"/>
<rect x="499.02" y="70.5" width="35" height="35" stroke="black" stroke-opacity="0.3"/>
<rect x="533.52" y="70" width="36" height="36" fill="#6EA4C6"/>
<rect x="534.02" y="70.5" width="35" height="35" stroke="black" stroke-opacity="0.3"/>
<rect x="568.52" y="70" width="36" height="36" fill="#6EA4C6"/>
<rect x="569.02" y="70.5" width="35" height="35" stroke="black" stroke-opacity="0.3"/>
<rect x="603.52" y="70" width="36" height="36" fill="#6EA4C6"/>
<rect x="604.02" y="70.5" width="35" height="35" stroke="black" stroke-opacity="0.3"/>
<rect x="359.52" width="36" height="36" fill="#6EA4C6"/>
<rect x="360.02" y="0.5" width="35" height="35" stroke="black" stroke-opacity="0.3"/>
<rect x="394.52" width="35" height="36" fill="#6EA4C6"/>
<rect x="395.02" y="0.5" width="34" height="35" stroke="black" stroke-opacity="0.3"/>
<rect x="429.52" width="35" height="36" fill="#6EA4C6"/>
<rect x="430.02" y="0.5" width="34" height="35" stroke="black" stroke-opacity="0.3"/>
<rect x="463.52" width="36" height="36" fill="#6EA4C6"/>
<rect x="464.02" y="0.5" width="35" height="35" stroke="black" stroke-opacity="0.3"/>
<rect x="498.52" width="36" height="36" fill="#6EA4C6"/>
<rect x="499.02" y="0.5" width="35" height="35" stroke="black" stroke-opacity="0.3"/>
<rect x="533.52" width="36" height="36" fill="#6EA4C6"/>
<rect x="534.02" y="0.5" width="35" height="35" stroke="black" stroke-opacity="0.3"/>
<rect x="568.52" width="36" height="36" fill="#6EA4C6"/>
<rect x="569.02" y="0.5" width="35" height="35" stroke="black" stroke-opacity="0.3"/>
<rect x="603.52" width="36" height="36" fill="#6EA4C6"/>
<rect x="604.02" y="0.5" width="35" height="35" stroke="black" stroke-opacity="0.3"/>
<rect x="359.52" y="35" width="36" height="36" fill="#6EA4C6"/>
<rect x="360.02" y="35.5" width="35" height="35" stroke="black" stroke-opacity="0.3"/>
<rect x="394.52" y="35" width="35" height="36" fill="#6EA4C6"/>
<rect x="395.02" y="35.5" width="34" height="35" stroke="black" stroke-opacity="0.3"/>
<rect x="429.52" y="35" width="35" height="36" fill="#6EA4C6"/>
<rect x="430.02" y="35.5" width="34" height="35" stroke="black" stroke-opacity="0.3"/>
<rect x="463.52" y="35" width="36" height="36" fill="#6EA4C6"/>
<rect x="464.02" y="35.5" width="35" height="35" stroke="black" stroke-opacity="0.3"/>
<rect x="498.52" y="35" width="36" height="36" fill="#6EA4C6"/>
<rect x="499.02" y="35.5" width="35" height="35" stroke="black" stroke-opacity="0.3"/>
<rect x="533.52" y="35" width="36" height="36" fill="#6EA4C6"/>
<rect x="534.02" y="35.5" width="35" height="35" stroke="black" stroke-opacity="0.3"/>
<rect x="568.52" y="35" width="36" height="36" fill="#6EA4C6"/>
<rect x="569.02" y="35.5" width="35" height="35" stroke="black" stroke-opacity="0.3"/>
<rect x="603.52" y="35" width="36" height="36" fill="#6EA4C6"/>
<rect x="604.02" y="35.5" width="35" height="35" stroke="black" stroke-opacity="0.3"/>
<rect x="324.52" y="70" width="36" height="36" fill="#6EA4C6"/>
<rect x="325.02" y="70.5" width="35" height="35" stroke="black" stroke-opacity="0.3"/>
<rect x="324.52" width="36" height="36" fill="#6EA4C6"/>
<rect x="325.02" y="0.5" width="35" height="35" stroke="black" stroke-opacity="0.3"/>
<rect x="324.52" y="35" width="36" height="36" fill="#6EA4C6"/>
<rect x="325.02" y="35.5" width="35" height="35" stroke="black" stroke-opacity="0.3"/>
<rect x="359.52" y="188" width="36" height="36" fill="#C1D8E6"/>
<rect x="360.02" y="188.5" width="35" height="35" stroke="black" stroke-opacity="0.3"/>
<rect x="394.52" y="188" width="35" height="36" fill="#C1D8E6"/>
<rect x="395.02" y="188.5" width="34" height="35" stroke="black" stroke-opacity="0.3"/>
<rect x="429.52" y="188" width="35" height="36" fill="#C1D8E6"/>
<rect x="430.02" y="188.5" width="34" height="35" stroke="black" stroke-opacity="0.3"/>
<rect x="463.52" y="188" width="36" height="36" fill="#C1D8E6"/>
<rect x="464.02" y="188.5" width="35" height="35" stroke="black" stroke-opacity="0.3"/>
<rect x="498.52" y="188" width="36" height="36" fill="#C1D8E6"/>
<rect x="499.02" y="188.5" width="35" height="35" stroke="black" stroke-opacity="0.3"/>
<rect x="533.52" y="188" width="36" height="36" fill="#C1D8E6"/>
<rect x="534.02" y="188.5" width="35" height="35" stroke="black" stroke-opacity="0.3"/>
<rect x="568.52" y="188" width="36" height="36" fill="#C1D8E6"/>
<rect x="569.02" y="188.5" width="35" height="35" stroke="black" stroke-opacity="0.3"/>
<rect x="603.52" y="188" width="36" height="36" fill="#C1D8E6"/>
<rect x="604.02" y="188.5" width="35" height="35" stroke="black" stroke-opacity="0.3"/>
<rect x="359.52" y="118" width="36" height="36" fill="#C1D8E6"/>
<rect x="360.02" y="118.5" width="35" height="35" stroke="black" stroke-opacity="0.3"/>
<rect x="394.52" y="118" width="35" height="36" fill="#C1D8E6"/>
<rect x="395.02" y="118.5" width="34" height="35" stroke="black" stroke-opacity="0.3"/>
<rect x="429.52" y="118" width="35" height="36" fill="#C1D8E6"/>
<rect x="430.02" y="118.5" width="34" height="35" stroke="black" stroke-opacity="0.3"/>
<rect x="463.52" y="118" width="36" height="36" fill="#C1D8E6"/>
<rect x="464.02" y="118.5" width="35" height="35" stroke="black" stroke-opacity="0.3"/>
<rect x="498.52" y="118" width="36" height="36" fill="#C1D8E6"/>
<rect x="499.02" y="118.5" width="35" height="35" stroke="black" stroke-opacity="0.3"/>
<rect x="533.52" y="118" width="36" height="36" fill="#C1D8E6"/>
<rect x="534.02" y="118.5" width="35" height="35" stroke="black" stroke-opacity="0.3"/>
<rect x="568.52" y="118" width="36" height="36" fill="#C1D8E6"/>
<rect x="569.02" y="118.5" width="35" height="35" stroke="black" stroke-opacity="0.3"/>
<rect x="603.52" y="118" width="36" height="36" fill="#C1D8E6"/>
<rect x="604.02" y="118.5" width="35" height="35" stroke="black" stroke-opacity="0.3"/>
<rect x="359.52" y="153" width="36" height="36" fill="#C1D8E6"/>
<rect x="360.02" y="153.5" width="35" height="35" stroke="black" stroke-opacity="0.3"/>
<rect x="324.52" y="188" width="36" height="36" fill="#C1D8E6"/>
<rect x="325.02" y="188.5" width="35" height="35" stroke="black" stroke-opacity="0.3"/>
<rect x="324.52" y="118" width="36" height="36" fill="#C1D8E6"/>
<rect x="325.02" y="118.5" width="35" height="35" stroke="black" stroke-opacity="0.3"/>
<rect x="324.52" y="153" width="36" height="36" fill="#C1D8E6"/>
<rect x="325.02" y="153.5" width="35" height="35" stroke="black" stroke-opacity="0.3"/>
<rect x="394.52" y="153" width="35" height="36" fill="#C1D8E6"/>
<rect x="395.02" y="153.5" width="34" height="35" stroke="black" stroke-opacity="0.3"/>
<rect x="429.52" y="153" width="35" height="36" fill="#C1D8E6"/>
<rect x="430.02" y="153.5" width="34" height="35" stroke="black" stroke-opacity="0.3"/>
<rect x="463.52" y="153" width="36" height="36" fill="#C1D8E6"/>
<rect x="464.02" y="153.5" width="35" height="35" stroke="black" stroke-opacity="0.3"/>
<rect x="498.52" y="153" width="36" height="36" fill="#C1D8E6"/>
<rect x="499.02" y="153.5" width="35" height="35" stroke="black" stroke-opacity="0.3"/>
<rect x="533.52" y="153" width="36" height="36" fill="#C1D8E6"/>
<rect x="534.02" y="153.5" width="35" height="35" stroke="black" stroke-opacity="0.3"/>
<rect x="568.52" y="153" width="36" height="36" fill="#C1D8E6"/>
<rect x="569.02" y="153.5" width="35" height="35" stroke="black" stroke-opacity="0.3"/>
<rect x="603.52" y="153" width="36" height="36" fill="#C1D8E6"/>
<rect x="604.02" y="153.5" width="35" height="35" stroke="black" stroke-opacity="0.3"/>
<line x1="639.52" y1="645.5" x2="326.52" y2="645.5" stroke="#D1232A" stroke-width="5" stroke-dasharray="20 20"/>
<line x1="639.52" y1="913.5" x2="326.52" y2="913.5" stroke="#A3A3A3" stroke-width="5" stroke-dasharray="20 20"/>
<line x1="639.52" y1="817.5" x2="326.52" y2="817.5" stroke="#F05C22" stroke-width="5" stroke-dasharray="20 20"/>
<rect x="359.52" y="424" width="36" height="36" fill="#D98180"/>
<rect x="360.02" y="424.5" width="35" height="35" stroke="black" stroke-opacity="0.3"/>
<rect x="394.52" y="424" width="35" height="36" fill="#D98180"/>
<rect x="395.02" y="424.5" width="34" height="35" stroke="black" stroke-opacity="0.3"/>
<rect x="429.52" y="424" width="35" height="36" fill="#D98180"/>
<rect x="430.02" y="424.5" width="34" height="35" stroke="black" stroke-opacity="0.3"/>
<rect x="463.52" y="424" width="36" height="36" fill="#D98180"/>
<rect x="464.02" y="424.5" width="35" height="35" stroke="black" stroke-opacity="0.3"/>
<rect x="498.52" y="424" width="36" height="36" fill="#D98180"/>
<rect x="499.02" y="424.5" width="35" height="35" stroke="black" stroke-opacity="0.3"/>
<rect x="533.52" y="424" width="36" height="36" fill="#D98180"/>
<rect x="534.02" y="424.5" width="35" height="35" stroke="black" stroke-opacity="0.3"/>
<rect x="568.52" y="424" width="36" height="36" fill="#D98180"/>
<rect x="569.02" y="424.5" width="35" height="35" stroke="black" stroke-opacity="0.3"/>
<rect x="603.52" y="424" width="36" height="36" fill="#D98180"/>
<rect x="604.02" y="424.5" width="35" height="35" stroke="black" stroke-opacity="0.3"/>
<rect x="359.52" y="354" width="36" height="36" fill="#D98180"/>
<rect x="360.02" y="354.5" width="35" height="35" stroke="black" stroke-opacity="0.3"/>
<rect x="394.52" y="354" width="35" height="36" fill="#D98180"/>
<rect x="395.02" y="354.5" width="34" height="35" stroke="black" stroke-opacity="0.3"/>
<rect x="429.52" y="354" width="35" height="36" fill="#D98180"/>
<rect x="430.02" y="354.5" width="34" height="35" stroke="black" stroke-opacity="0.3"/>
<rect x="463.52" y="354" width="36" height="36" fill="#D98180"/>
<rect x="464.02" y="354.5" width="35" height="35" stroke="black" stroke-opacity="0.3"/>
<rect x="498.52" y="354" width="36" height="36" fill="#D98180"/>
<rect x="499.02" y="354.5" width="35" height="35" stroke="black" stroke-opacity="0.3"/>
<rect x="533.52" y="354" width="36" height="36" fill="#D98180"/>
<rect x="534.02" y="354.5" width="35" height="35" stroke="black" stroke-opacity="0.3"/>
<rect x="568.52" y="354" width="36" height="36" fill="#D98180"/>
<rect x="569.02" y="354.5" width="35" height="35" stroke="black" stroke-opacity="0.3"/>
<rect x="603.52" y="354" width="36" height="36" fill="#D98180"/>
<rect x="604.02" y="354.5" width="35" height="35" stroke="black" stroke-opacity="0.3"/>
<rect x="359.52" y="389" width="36" height="36" fill="#D98180"/>
<rect x="360.02" y="389.5" width="35" height="35" stroke="black" stroke-opacity="0.3"/>
<rect x="394.52" y="389" width="35" height="36" fill="#D98180"/>
<rect x="395.02" y="389.5" width="34" height="35" stroke="black" stroke-opacity="0.3"/>
<rect x="429.52" y="389" width="35" height="36" fill="#D98180"/>
<rect x="430.02" y="389.5" width="34" height="35" stroke="black" stroke-opacity="0.3"/>
<rect x="463.52" y="389" width="36" height="36" fill="#D98180"/>
<rect x="464.02" y="389.5" width="35" height="35" stroke="black" stroke-opacity="0.3"/>
<rect x="498.52" y="389" width="36" height="36" fill="#D98180"/>
<rect x="499.02" y="389.5" width="35" height="35" stroke="black" stroke-opacity="0.3"/>
<rect x="533.52" y="389" width="36" height="36" fill="#D98180"/>
<rect x="534.02" y="389.5" width="35" height="35" stroke="black" stroke-opacity="0.3"/>
<rect x="568.52" y="389" width="36" height="36" fill="#D98180"/>
<rect x="569.02" y="389.5" width="35" height="35" stroke="black" stroke-opacity="0.3"/>
<rect x="603.52" y="389" width="36" height="36" fill="#D98180"/>
<rect x="604.02" y="389.5" width="35" height="35" stroke="black" stroke-opacity="0.3"/>
<rect x="359.52" y="542" width="36" height="36" fill="#EEC7C7"/>
<rect x="360.02" y="542.5" width="35" height="35" stroke="black" stroke-opacity="0.3"/>
<rect x="394.52" y="542" width="35" height="36" fill="#EEC7C7"/>
<rect x="395.02" y="542.5" width="34" height="35" stroke="black" stroke-opacity="0.3"/>
<rect x="429.52" y="542" width="35" height="36" fill="#EEC7C7"/>
<rect x="430.02" y="542.5" width="34" height="35" stroke="black" stroke-opacity="0.3"/>
<rect x="463.52" y="542" width="36" height="36" fill="#EEC7C7"/>
<rect x="464.02" y="542.5" width="35" height="35" stroke="black" stroke-opacity="0.3"/>
<rect x="498.52" y="542" width="36" height="36" fill="#EEC7C7"/>
<rect x="499.02" y="542.5" width="35" height="35" stroke="black" stroke-opacity="0.3"/>
<rect x="533.52" y="542" width="36" height="36" fill="#EEC7C7"/>
<rect x="534.02" y="542.5" width="35" height="35" stroke="black" stroke-opacity="0.3"/>
<rect x="568.52" y="542" width="36" height="36" fill="#EEC7C7"/>
<rect x="569.02" y="542.5" width="35" height="35" stroke="black" stroke-opacity="0.3"/>
<rect x="603.52" y="542" width="36" height="36" fill="#EEC7C7"/>
<rect x="604.02" y="542.5" width="35" height="35" stroke="black" stroke-opacity="0.3"/>
<rect x="359.52" y="472" width="36" height="36" fill="#EEC7C7"/>
<rect x="360.02" y="472.5" width="35" height="35" stroke="black" stroke-opacity="0.3"/>
<rect x="394.52" y="472" width="35" height="36" fill="#EEC7C7"/>
<rect x="395.02" y="472.5" width="34" height="35" stroke="black" stroke-opacity="0.3"/>
<rect x="429.52" y="472" width="35" height="36" fill="#EEC7C7"/>
<rect x="430.02" y="472.5" width="34" height="35" stroke="black" stroke-opacity="0.3"/>
<rect x="463.52" y="472" width="36" height="36" fill="#EEC7C7"/>
<rect x="464.02" y="472.5" width="35" height="35" stroke="black" stroke-opacity="0.3"/>
<rect x="498.52" y="472" width="36" height="36" fill="#EEC7C7"/>
<rect x="499.02" y="472.5" width="35" height="35" stroke="black" stroke-opacity="0.3"/>
<rect x="533.52" y="472" width="36" height="36" fill="#EEC7C7"/>
<rect x="534.02" y="472.5" width="35" height="35" stroke="black" stroke-opacity="0.3"/>
<rect x="568.52" y="472" width="36" height="36" fill="#EEC7C7"/>
<rect x="569.02" y="472.5" width="35" height="35" stroke="black" stroke-opacity="0.3"/>
<rect x="603.52" y="472" width="36" height="36" fill="#EEC7C7"/>
<rect x="604.02" y="472.5" width="35" height="35" stroke="black" stroke-opacity="0.3"/>
<rect x="359.52" y="507" width="36" height="36" fill="#EEC7C7"/>
<rect x="360.02" y="507.5" width="35" height="35" stroke="black" stroke-opacity="0.3"/>
<rect x="324.52" y="424" width="36" height="36" fill="#D98180"/>
<rect x="325.02" y="424.5" width="35" height="35" stroke="black" stroke-opacity="0.3"/>
<rect x="324.52" y="354" width="36" height="36" fill="#D98180"/>
<rect x="325.02" y="354.5" width="35" height="35" stroke="black" stroke-opacity="0.3"/>
<rect x="324.52" y="389" width="36" height="36" fill="#D98180"/>
<rect x="325.02" y="389.5" width="35" height="35" stroke="black" stroke-opacity="0.3"/>
<rect x="324.52" y="542" width="36" height="36" fill="#EEC7C7"/>
<rect x="325.02" y="542.5" width="35" height="35" stroke="black" stroke-opacity="0.3"/>
<rect x="324.52" y="472" width="36" height="36" fill="#EEC7C7"/>
<rect x="325.02" y="472.5" width="35" height="35" stroke="black" stroke-opacity="0.3"/>
<rect x="324.52" y="507" width="36" height="36" fill="#EEC7C7"/>
<rect x="325.02" y="507.5" width="35" height="35" stroke="black" stroke-opacity="0.3"/>
<rect x="394.52" y="507" width="35" height="36" fill="#EEC7C7"/>
<rect x="395.02" y="507.5" width="34" height="35" stroke="black" stroke-opacity="0.3"/>
<rect x="429.52" y="507" width="35" height="36" fill="#EEC7C7"/>
<rect x="430.02" y="507.5" width="34" height="35" stroke="black" stroke-opacity="0.3"/>
<rect x="463.52" y="507" width="36" height="36" fill="#EEC7C7"/>
<rect x="464.02" y="507.5" width="35" height="35" stroke="black" stroke-opacity="0.3"/>
<rect x="498.52" y="507" width="36" height="36" fill="#EEC7C7"/>
<rect x="499.02" y="507.5" width="35" height="35" stroke="black" stroke-opacity="0.3"/>
<rect x="533.52" y="507" width="36" height="36" fill="#EEC7C7"/>
<rect x="534.02" y="507.5" width="35" height="35" stroke="black" stroke-opacity="0.3"/>
<rect x="568.52" y="507" width="36" height="36" fill="#EEC7C7"/>
<rect x="569.02" y="507.5" width="35" height="35" stroke="black" stroke-opacity="0.3"/>
<rect x="603.52" y="507" width="36" height="36" fill="#EEC7C7"/>
<rect x="604.02" y="507.5" width="35" height="35" stroke="black" stroke-opacity="0.3"/>
<path d="M513.52 740C513.52 756.569 500.088 770 483.52 770C466.951 770 453.52 756.569 453.52 740C453.52 723.431 466.951 710 483.52 710C500.088 710 513.52 723.431 513.52 740Z" fill="#F05C22"/>
<path fill-rule="evenodd" clip-rule="evenodd" d="M483.52 768C498.984 768 511.52 755.464 511.52 740C511.52 724.536 498.984 712 483.52 712C468.056 712 455.52 724.536 455.52 740C455.52 755.464 468.056 768 483.52 768ZM483.52 770C500.088 770 513.52 756.569 513.52 740C513.52 723.431 500.088 710 483.52 710C466.951 710 453.52 723.431 453.52 740C453.52 756.569 466.951 770 483.52 770Z" fill="white"/>
<path d="M500.113 726.517C497.056 717.595 488.023 716.201 484.113 716.021C484.113 716.021 483.78 716 483.212 716C483.205 716 483.205 716 483.198 716C483.191 716 483.191 716 483.184 716C482.608 716 482.283 716.021 482.283 716.021C478.379 716.201 469.339 717.595 466.289 726.517C463.682 734.129 468.618 742.732 467.62 743.89C463.599 748.542 469.069 755.918 469.804 756.522C471.149 757.617 475.419 755.399 474.747 756.542C474.241 757.416 473.769 764.002 473.769 764.002H475.093L475.724 761.707L476.861 761.693L477.076 764.002H479.385L479.6 761.797L480.369 761.687L480.48 763.995H482.352L482.442 761.624H483.96L484.05 763.995H485.922L486.033 761.687L486.803 761.797L487.018 764.002H489.326L489.541 761.693L490.678 761.707L491.309 764.002H492.633C492.633 764.002 492.162 757.409 491.656 756.542C490.983 755.392 495.254 757.61 496.599 756.522C497.347 755.912 502.803 748.542 498.782 743.89C497.784 742.726 502.713 734.122 500.113 726.517ZM480.716 748.702C480.196 749.291 479.44 749.991 478.414 750.56C475.953 751.946 473.513 751.752 472.521 751.613C472.459 751.606 472.39 751.586 472.341 751.551C470.185 750.185 469.36 748.057 470.005 746.726C470.102 746.525 470.462 745.852 471.599 745.436C471.662 745.415 471.731 745.409 471.793 745.409C473.159 745.533 474.851 745.804 476.729 746.386C478.248 746.857 479.544 747.433 480.605 747.987C480.854 748.126 480.91 748.473 480.716 748.702ZM485.874 756.757C485.867 756.91 485.68 756.965 485.583 756.854C485.347 756.556 485.028 756.217 484.605 755.905C484.147 755.572 483.711 755.357 483.371 755.239C483.038 755.364 482.595 755.572 482.137 755.905C481.707 756.217 481.388 756.556 481.159 756.854C481.062 756.972 480.875 756.91 480.868 756.757C480.799 755.634 480.848 753.326 482.539 751.655C482.754 751.44 483.038 751.246 483.378 751.066C483.704 751.246 483.995 751.433 484.217 751.655C485.895 753.326 485.943 755.641 485.874 756.757ZM494.131 751.551C494.075 751.586 494.013 751.606 493.95 751.613C492.959 751.752 490.526 751.946 488.058 750.56C487.031 749.984 486.276 749.291 485.756 748.702C485.562 748.48 485.617 748.126 485.888 747.987C486.948 747.433 488.245 746.864 489.763 746.386C491.642 745.797 493.34 745.526 494.699 745.409C494.761 745.402 494.831 745.409 494.893 745.436C496.016 745.852 496.384 746.525 496.488 746.726C497.105 748.057 496.287 750.192 494.131 751.551Z" fill="black"/>
<path d="M1.1593 11.0001H7.6393C9.82596 11.0001 11.466 11.5868 12.5593 12.7601C13.6526 13.9334 14.1993 15.6534 14.1993 17.9201V20.6801C14.1993 22.9468 13.6526 24.6668 12.5593 25.8401C11.466 27.0134 9.82596 27.6001 7.6393 27.6001H5.5593V39.0001H1.1593V11.0001ZM7.6393 23.6001C8.3593 23.6001 8.89263 23.4001 9.2393 23.0001C9.61263 22.6001 9.7993 21.9201 9.7993 20.9601V17.6401C9.7993 16.6801 9.61263 16.0001 9.2393 15.6001C8.89263 15.2001 8.3593 15.0001 7.6393 15.0001H5.5593V23.6001H7.6393Z" fill="black"/>
<path d="M16.589 11.0001H20.989V35.0001H28.229V39.0001H16.589V11.0001Z" fill="black"/>
<path d="M33.8952 11.0001H39.8552L44.4152 39.0001H40.0152L39.2152 33.4401V33.5201H34.2152L33.4152 39.0001H29.3352L33.8952 11.0001ZM38.6952 29.7201L36.7352 15.8801H36.6552L34.7352 29.7201H38.6952Z" fill="black"/>
<path d="M48.754 27.0801L43.434 11.0001H48.114L51.114 21.2801H51.194L54.194 11.0001H58.474L53.154 27.0801V39.0001H48.754V27.0801Z" fill="black"/>
<path d="M60.4562 11.0001H72.4562V15.0001H64.8562V22.4001H70.8962V26.4001H64.8562V35.0001H72.4562V39.0001H60.4562V11.0001Z" fill="black"/>
<path d="M74.9874 11.0001H81.5074C83.7741 11.0001 85.4274 11.5334 86.4674 12.6001C87.5074 13.6401 88.0274 15.2534 88.0274 17.4401V19.1601C88.0274 22.0668 87.0674 23.9068 85.1474 24.6801V24.7601C86.2141 25.0801 86.9608 25.7334 87.3874 26.7201C87.8408 27.7068 88.0674 29.0268 88.0674 30.6801V35.6001C88.0674 36.4001 88.0941 37.0534 88.1474 37.5601C88.2008 38.0401 88.3341 38.5201 88.5474 39.0001H84.0674C83.9074 38.5468 83.8008 38.1201 83.7474 37.7201C83.6941 37.3201 83.6674 36.6001 83.6674 35.5601V30.4401C83.6674 29.1601 83.4541 28.2668 83.0274 27.7601C82.6274 27.2534 81.9208 27.0001 80.9074 27.0001H79.3874V39.0001H74.9874V11.0001ZM80.9874 23.0001C81.8674 23.0001 82.5208 22.7734 82.9474 22.3201C83.4008 21.8668 83.6274 21.1068 83.6274 20.0401V17.8801C83.6274 16.8668 83.4408 16.1334 83.0674 15.6801C82.7208 15.2268 82.1608 15.0001 81.3874 15.0001H79.3874V23.0001H80.9874Z" fill="black"/>
<path d="M100.926 11.0001H106.886L111.446 39.0001H107.046L106.246 33.4401V33.5201H101.246L100.446 39.0001H96.3665L100.926 11.0001ZM105.726 29.7201L103.766 15.8801H103.686L101.766 29.7201H105.726Z" fill="black"/>
<path d="M112.912 15.2401H111.472V11.0001H115.712V14.8001L113.272 20.0401H111.232L112.912 15.2401Z" fill="black"/>
<path d="M124.731 39.4001C122.598 39.4001 120.984 38.8001 119.891 37.6001C118.798 36.3734 118.251 34.6268 118.251 32.3601V30.7601H122.411V32.6801C122.411 34.4934 123.171 35.4001 124.691 35.4001C125.438 35.4001 125.998 35.1868 126.371 34.7601C126.771 34.3068 126.971 33.5868 126.971 32.6001C126.971 31.4268 126.704 30.4001 126.171 29.5201C125.638 28.6134 124.651 27.5334 123.211 26.2801C121.398 24.6801 120.131 23.2401 119.411 21.9601C118.691 20.6534 118.331 19.1868 118.331 17.5601C118.331 15.3468 118.891 13.6401 120.011 12.4401C121.131 11.2134 122.758 10.6001 124.891 10.6001C126.998 10.6001 128.584 11.2134 129.651 12.4401C130.744 13.6401 131.291 15.3734 131.291 17.6401V18.8001H127.131V17.3601C127.131 16.4001 126.944 15.7068 126.571 15.2801C126.198 14.8268 125.651 14.6001 124.931 14.6001C123.464 14.6001 122.731 15.4934 122.731 17.2801C122.731 18.2934 122.998 19.2401 123.531 20.1201C124.091 21.0001 125.091 22.0668 126.531 23.3201C128.371 24.9201 129.638 26.3734 130.331 27.6801C131.024 28.9868 131.371 30.5201 131.371 32.2801C131.371 34.5734 130.798 36.3334 129.651 37.5601C128.531 38.7868 126.891 39.4001 124.731 39.4001Z" fill="black"/>
<path d="M140.3 11.0001H147.02C149.207 11.0001 150.847 11.5868 151.94 12.7601C153.033 13.9334 153.58 15.6534 153.58 17.9201V32.0801C153.58 34.3468 153.033 36.0668 151.94 37.2401C150.847 38.4134 149.207 39.0001 147.02 39.0001H140.3V11.0001ZM146.94 35.0001C147.66 35.0001 148.207 34.7868 148.58 34.3601C148.98 33.9334 149.18 33.2401 149.18 32.2801V17.7201C149.18 16.7601 148.98 16.0668 148.58 15.6401C148.207 15.2134 147.66 15.0001 146.94 15.0001H144.7V35.0001H146.94Z" fill="black"/>
<path d="M156.55 11.0001H163.07C165.337 11.0001 166.99 11.5334 168.03 12.6001C169.07 13.6401 169.59 15.2534 169.59 17.4401V19.1601C169.59 22.0668 168.63 23.9068 166.71 24.6801V24.7601C167.777 25.0801 168.523 25.7334 168.95 26.7201C169.403 27.7068 169.63 29.0268 169.63 30.6801V35.6001C169.63 36.4001 169.657 37.0534 169.71 37.5601C169.763 38.0401 169.897 38.5201 170.11 39.0001H165.63C165.47 38.5468 165.363 38.1201 165.31 37.7201C165.257 37.3201 165.23 36.6001 165.23 35.5601V30.4401C165.23 29.1601 165.017 28.2668 164.59 27.7601C164.19 27.2534 163.483 27.0001 162.47 27.0001H160.95V39.0001H156.55V11.0001ZM162.55 23.0001C163.43 23.0001 164.083 22.7734 164.51 22.3201C164.963 21.8668 165.19 21.1068 165.19 20.0401V17.8801C165.19 16.8668 165.003 16.1334 164.63 15.6801C164.283 15.2268 163.723 15.0001 162.95 15.0001H160.95V23.0001H162.55Z" fill="black"/>
<path d="M179.043 39.4001C176.883 39.4001 175.229 38.7868 174.083 37.5601C172.936 36.3334 172.363 34.6001 172.363 32.3601V17.6401C172.363 15.4001 172.936 13.6668 174.083 12.4401C175.229 11.2134 176.883 10.6001 179.043 10.6001C181.203 10.6001 182.856 11.2134 184.003 12.4401C185.149 13.6668 185.723 15.4001 185.723 17.6401V32.3601C185.723 34.6001 185.149 36.3334 184.003 37.5601C182.856 38.7868 181.203 39.4001 179.043 39.4001ZM179.043 35.4001C180.563 35.4001 181.323 34.4801 181.323 32.6401V17.3601C181.323 15.5201 180.563 14.6001 179.043 14.6001C177.523 14.6001 176.763 15.5201 176.763 17.3601V32.6401C176.763 34.4801 177.523 35.4001 179.043 35.4001Z" fill="black"/>
<path d="M188.698 11.0001H195.178C197.365 11.0001 199.005 11.5868 200.098 12.7601C201.192 13.9334 201.738 15.6534 201.738 17.9201V20.6801C201.738 22.9468 201.192 24.6668 200.098 25.8401C199.005 27.0134 197.365 27.6001 195.178 27.6001H193.098V39.0001H188.698V11.0001ZM195.178 23.6001C195.898 23.6001 196.432 23.4001 196.778 23.0001C197.152 22.6001 197.338 21.9201 197.338 20.9601V17.6401C197.338 16.6801 197.152 16.0001 196.778 15.6001C196.432 15.2001 195.898 15.0001 195.178 15.0001H193.098V23.6001H195.178Z" fill="black"/>
<path d="M0.279297 83.0801L8.4393 63.0001H0.679297V59.0001H13.1593V62.9201L4.9993 83.0001H13.1593V87.0001H0.279297V83.0801Z" fill="black"/>
<path d="M22.0115 87.4001C19.8515 87.4001 18.1982 86.7868 17.0515 85.5601C15.9048 84.3334 15.3315 82.6001 15.3315 80.3601V65.6401C15.3315 63.4001 15.9048 61.6668 17.0515 60.4401C18.1982 59.2134 19.8515 58.6001 22.0115 58.6001C24.1715 58.6001 25.8248 59.2134 26.9715 60.4401C28.1182 61.6668 28.6915 63.4001 28.6915 65.6401V80.3601C28.6915 82.6001 28.1182 84.3334 26.9715 85.5601C25.8248 86.7868 24.1715 87.4001 22.0115 87.4001ZM22.0115 83.4001C23.5315 83.4001 24.2915 82.4801 24.2915 80.6401V65.3601C24.2915 63.5201 23.5315 62.6001 22.0115 62.6001C20.4915 62.6001 19.7315 63.5201 19.7315 65.3601V80.6401C19.7315 82.4801 20.4915 83.4001 22.0115 83.4001Z" fill="black"/>
<path d="M31.6671 59.0001H37.1871L41.4671 75.7601H41.5471V59.0001H45.4671V87.0001H40.9471L35.6671 66.5601H35.5871V87.0001H31.6671V59.0001Z" fill="black"/>
<path d="M48.7374 59.0001H60.7374V63.0001H53.1374V70.4001H59.1774V74.4001H53.1374V83.0001H60.7374V87.0001H48.7374V59.0001Z" fill="black"/>
<path d="M74.2749 87.4001C72.6749 87.4001 71.4616 86.8534 70.6349 85.7601C69.8083 84.6668 69.3949 83.0801 69.3949 81.0001V78.0801C69.3949 76.6134 69.6483 75.3868 70.1549 74.4001C70.6616 73.4134 71.4883 72.6934 72.6349 72.2401V72.1601C71.5949 71.7334 70.8216 71.0534 70.3149 70.1201C69.8349 69.1601 69.5949 67.9334 69.5949 66.4401V65.9201C69.5949 63.6534 70.1416 61.9334 71.2349 60.7601C72.3283 59.5868 73.9683 59.0001 76.1549 59.0001H81.1949V63.0001H76.2349C75.5149 63.0001 74.9549 63.2134 74.5549 63.6401C74.1816 64.0668 73.9949 64.7601 73.9949 65.7201V67.4401C73.9949 68.5068 74.2083 69.2668 74.6349 69.7201C75.0883 70.1734 75.7549 70.4001 76.6349 70.4001H78.3549V67.2801H82.6749V70.4001H83.9149V74.4001H82.6749V83.6001C82.6749 84.4001 82.7016 85.0534 82.7549 85.5601C82.8083 86.0401 82.9416 86.5201 83.1549 87.0001H78.7549C78.5416 86.4134 78.4083 85.6801 78.3549 84.8001H78.2749C77.7949 85.6801 77.2349 86.3334 76.5949 86.7601C75.9816 87.1868 75.2083 87.4001 74.2749 87.4001ZM75.9149 83.4001C77.3016 83.4001 78.1149 82.5601 78.3549 80.8801V74.4001H76.6749C75.6616 74.4001 74.9283 74.6801 74.4749 75.2401C74.0216 75.7734 73.7949 76.6801 73.7949 77.9601V80.8001C73.7949 81.7334 73.9816 82.4001 74.3549 82.8001C74.7283 83.2001 75.2483 83.4001 75.9149 83.4001Z" fill="black"/>
<path d="M96.2009 63.0001H91.6009V59.0001H105.201V63.0001H100.601V87.0001H96.2009V63.0001Z" fill="black"/>
<path d="M107.331 59.0001H119.331V63.0001H111.731V70.4001H117.771V74.4001H111.731V83.0001H119.331V87.0001H107.331V59.0001Z" fill="black"/>
<path d="M121.862 59.0001H128.382C130.649 59.0001 132.302 59.5334 133.342 60.6001C134.382 61.6401 134.902 63.2534 134.902 65.4401V67.1601C134.902 70.0668 133.942 71.9068 132.022 72.6801V72.7601C133.089 73.0801 133.836 73.7334 134.262 74.7201C134.716 75.7068 134.942 77.0268 134.942 78.6801V83.6001C134.942 84.4001 134.969 85.0534 135.022 85.5601C135.076 86.0401 135.209 86.5201 135.422 87.0001H130.942C130.782 86.5468 130.676 86.1201 130.622 85.7201C130.569 85.3201 130.542 84.6001 130.542 83.5601V78.4401C130.542 77.1601 130.329 76.2668 129.902 75.7601C129.502 75.2534 128.796 75.0001 127.782 75.0001H126.262V87.0001H121.862V59.0001ZM127.862 71.0001C128.742 71.0001 129.396 70.7734 129.822 70.3201C130.276 69.8668 130.502 69.1068 130.502 68.0401V65.8801C130.502 64.8668 130.316 64.1334 129.942 63.6801C129.596 63.2268 129.036 63.0001 128.262 63.0001H126.262V71.0001H127.862Z" fill="black"/>
<path d="M137.995 59.0001H144.515C146.782 59.0001 148.435 59.5334 149.475 60.6001C150.515 61.6401 151.035 63.2534 151.035 65.4401V67.1601C151.035 70.0668 150.075 71.9068 148.155 72.6801V72.7601C149.222 73.0801 149.969 73.7334 150.395 74.7201C150.849 75.7068 151.075 77.0268 151.075 78.6801V83.6001C151.075 84.4001 151.102 85.0534 151.155 85.5601C151.209 86.0401 151.342 86.5201 151.555 87.0001H147.075C146.915 86.5468 146.809 86.1201 146.755 85.7201C146.702 85.3201 146.675 84.6001 146.675 83.5601V78.4401C146.675 77.1601 146.462 76.2668 146.035 75.7601C145.635 75.2534 144.929 75.0001 143.915 75.0001H142.395V87.0001H137.995V59.0001ZM143.995 71.0001C144.875 71.0001 145.529 70.7734 145.955 70.3201C146.409 69.8668 146.635 69.1068 146.635 68.0401V65.8801C146.635 64.8668 146.449 64.1334 146.075 63.6801C145.729 63.2268 145.169 63.0001 144.395 63.0001H142.395V71.0001H143.995Z" fill="black"/>
<path d="M154.128 59.0001H158.528V87.0001H154.128V59.0001Z" fill="black"/>
<path d="M165.263 63.0001H160.663V59.0001H174.263V63.0001H169.663V87.0001H165.263V63.0001Z" fill="black"/>
<path d="M182.597 87.4001C180.437 87.4001 178.784 86.7868 177.637 85.5601C176.491 84.3334 175.917 82.6001 175.917 80.3601V65.6401C175.917 63.4001 176.491 61.6668 177.637 60.4401C178.784 59.2134 180.437 58.6001 182.597 58.6001C184.757 58.6001 186.411 59.2134 187.557 60.4401C188.704 61.6668 189.277 63.4001 189.277 65.6401V80.3601C189.277 82.6001 188.704 84.3334 187.557 85.5601C186.411 86.7868 184.757 87.4001 182.597 87.4001ZM182.597 83.4001C184.117 83.4001 184.877 82.4801 184.877 80.6401V65.3601C184.877 63.5201 184.117 62.6001 182.597 62.6001C181.077 62.6001 180.317 63.5201 180.317 65.3601V80.6401C180.317 82.4801 181.077 83.4001 182.597 83.4001Z" fill="black"/>
<path d="M192.253 59.0001H198.773C201.04 59.0001 202.693 59.5334 203.733 60.6001C204.773 61.6401 205.293 63.2534 205.293 65.4401V67.1601C205.293 70.0668 204.333 71.9068 202.413 72.6801V72.7601C203.48 73.0801 204.226 73.7334 204.653 74.7201C205.106 75.7068 205.333 77.0268 205.333 78.6801V83.6001C205.333 84.4001 205.36 85.0534 205.413 85.5601C205.466 86.0401 205.6 86.5201 205.813 87.0001H201.333C201.173 86.5468 201.066 86.1201 201.013 85.7201C200.96 85.3201 200.933 84.6001 200.933 83.5601V78.4401C200.933 77.1601 200.72 76.2668 200.293 75.7601C199.893 75.2534 199.186 75.0001 198.173 75.0001H196.653V87.0001H192.253V59.0001ZM198.253 71.0001C199.133 71.0001 199.786 70.7734 200.213 70.3201C200.666 69.8668 200.893 69.1068 200.893 68.0401V65.8801C200.893 64.8668 200.706 64.1334 200.333 63.6801C199.986 63.2268 199.426 63.0001 198.653 63.0001H196.653V71.0001H198.253Z" fill="black"/>
<path d="M211.801 75.0801L206.481 59.0001H211.161L214.161 69.2801H214.241L217.241 59.0001H221.521L216.201 75.0801V87.0001H211.801V75.0801Z" fill="black"/>
<path d="M1.16 129H7.64C9.82667 129 11.4667 129.587 12.56 130.76C13.6533 131.933 14.2 133.653 14.2 135.92V138.68C14.2 140.947 13.6533 142.667 12.56 143.84C11.4667 145.013 9.82667 145.6 7.64 145.6H5.56V157H1.16V129ZM7.64 141.6C8.36 141.6 8.89333 141.4 9.24 141C9.61333 140.6 9.8 139.92 9.8 138.96V135.64C9.8 134.68 9.61333 134 9.24 133.6C8.89333 133.2 8.36 133 7.64 133H5.56V141.6H7.64Z" fill="black"/>
<path d="M16.5897 129H20.9897V153H28.2297V157H16.5897V129Z" fill="black"/>
<path d="M33.8959 129H39.8559L44.4159 157H40.0159L39.2159 151.44V151.52H34.2159L33.4159 157H29.3359L33.8959 129ZM38.6959 147.72L36.7359 133.88H36.6559L34.7359 147.72H38.6959Z" fill="black"/>
<path d="M48.7547 145.08L43.4347 129H48.1147L51.1147 139.28H51.1947L54.1947 129H58.4747L53.1547 145.08V157H48.7547V145.08Z" fill="black"/>
<path d="M60.4569 129H72.4569V133H64.8569V140.4H70.8969V144.4H64.8569V153H72.4569V157H60.4569V129Z" fill="black"/>
<path d="M74.9881 129H81.5081C83.7748 129 85.4281 129.533 86.4681 130.6C87.5081 131.64 88.0281 133.253 88.0281 135.44V137.16C88.0281 140.067 87.0681 141.907 85.1481 142.68V142.76C86.2148 143.08 86.9615 143.733 87.3881 144.72C87.8415 145.707 88.0681 147.027 88.0681 148.68V153.6C88.0681 154.4 88.0948 155.053 88.1481 155.56C88.2015 156.04 88.3348 156.52 88.5481 157H84.0681C83.9081 156.547 83.8015 156.12 83.7481 155.72C83.6948 155.32 83.6681 154.6 83.6681 153.56V148.44C83.6681 147.16 83.4548 146.267 83.0281 145.76C82.6281 145.253 81.9215 145 80.9081 145H79.3881V157H74.9881V129ZM80.9881 141C81.8681 141 82.5215 140.773 82.9481 140.32C83.4015 139.867 83.6281 139.107 83.6281 138.04V135.88C83.6281 134.867 83.4415 134.133 83.0681 133.68C82.7215 133.227 82.1615 133 81.3881 133H79.3881V141H80.9881Z" fill="black"/>
<path d="M100.927 129H106.887L111.447 157H107.047L106.247 151.44V151.52H101.247L100.447 157H96.3672L100.927 129ZM105.727 147.72L103.767 133.88H103.687L101.767 147.72H105.727Z" fill="black"/>
<path d="M112.912 133.24H111.472V129H115.712V132.8L113.272 138.04H111.232L112.912 133.24Z" fill="black"/>
<path d="M124.732 157.4C122.598 157.4 120.985 156.8 119.892 155.6C118.798 154.373 118.252 152.627 118.252 150.36V148.76H122.412V150.68C122.412 152.493 123.172 153.4 124.692 153.4C125.438 153.4 125.998 153.187 126.372 152.76C126.772 152.307 126.972 151.587 126.972 150.6C126.972 149.427 126.705 148.4 126.172 147.52C125.638 146.613 124.652 145.533 123.212 144.28C121.398 142.68 120.132 141.24 119.412 139.96C118.692 138.653 118.332 137.187 118.332 135.56C118.332 133.347 118.892 131.64 120.012 130.44C121.132 129.213 122.758 128.6 124.892 128.6C126.998 128.6 128.585 129.213 129.652 130.44C130.745 131.64 131.292 133.373 131.292 135.64V136.8H127.132V135.36C127.132 134.4 126.945 133.707 126.572 133.28C126.198 132.827 125.652 132.6 124.932 132.6C123.465 132.6 122.732 133.493 122.732 135.28C122.732 136.293 122.998 137.24 123.532 138.12C124.092 139 125.092 140.067 126.532 141.32C128.372 142.92 129.638 144.373 130.332 145.68C131.025 146.987 131.372 148.52 131.372 150.28C131.372 152.573 130.798 154.333 129.652 155.56C128.532 156.787 126.892 157.4 124.732 157.4Z" fill="black"/>
<path d="M4.6 181H0V177H13.6V181H9V205H4.6V181Z" fill="black"/>
<path d="M15.7303 177H27.7303V181H20.1303V188.4H26.1703V192.4H20.1303V201H27.7303V205H15.7303V177Z" fill="black"/>
<path d="M30.2616 177H36.7816C39.0482 177 40.7016 177.533 41.7416 178.6C42.7816 179.64 43.3016 181.253 43.3016 183.44V185.16C43.3016 188.067 42.3416 189.907 40.4216 190.68V190.76C41.4882 191.08 42.2349 191.733 42.6616 192.72C43.1149 193.707 43.3416 195.027 43.3416 196.68V201.6C43.3416 202.4 43.3682 203.053 43.4216 203.56C43.4749 204.04 43.6082 204.52 43.8216 205H39.3416C39.1816 204.547 39.0749 204.12 39.0216 203.72C38.9682 203.32 38.9416 202.6 38.9416 201.56V196.44C38.9416 195.16 38.7282 194.267 38.3016 193.76C37.9016 193.253 37.1949 193 36.1816 193H34.6616V205H30.2616V177ZM36.2616 189C37.1416 189 37.7949 188.773 38.2216 188.32C38.6749 187.867 38.9016 187.107 38.9016 186.04V183.88C38.9016 182.867 38.7149 182.133 38.3416 181.68C37.9949 181.227 37.4349 181 36.6616 181H34.6616V189H36.2616Z" fill="black"/>
<path d="M46.3944 177H52.9144C55.181 177 56.8344 177.533 57.8744 178.6C58.9144 179.64 59.4344 181.253 59.4344 183.44V185.16C59.4344 188.067 58.4744 189.907 56.5544 190.68V190.76C57.621 191.08 58.3677 191.733 58.7944 192.72C59.2477 193.707 59.4744 195.027 59.4744 196.68V201.6C59.4744 202.4 59.501 203.053 59.5544 203.56C59.6077 204.04 59.741 204.52 59.9544 205H55.4744C55.3144 204.547 55.2077 204.12 55.1544 203.72C55.101 203.32 55.0744 202.6 55.0744 201.56V196.44C55.0744 195.16 54.861 194.267 54.4344 193.76C54.0344 193.253 53.3277 193 52.3144 193H50.7944V205H46.3944V177ZM52.3944 189C53.2744 189 53.9277 188.773 54.3544 188.32C54.8077 187.867 55.0344 187.107 55.0344 186.04V183.88C55.0344 182.867 54.8477 182.133 54.4744 181.68C54.1277 181.227 53.5677 181 52.7944 181H50.7944V189H52.3944Z" fill="black"/>
<path d="M62.5272 177H66.9272V205H62.5272V177Z" fill="black"/>
<path d="M73.6625 181H69.0625V177H82.6625V181H78.0625V205H73.6625V181Z" fill="black"/>
<path d="M90.9966 205.4C88.8366 205.4 87.1832 204.787 86.0366 203.56C84.8899 202.333 84.3166 200.6 84.3166 198.36V183.64C84.3166 181.4 84.8899 179.667 86.0366 178.44C87.1832 177.213 88.8366 176.6 90.9966 176.6C93.1566 176.6 94.8099 177.213 95.9566 178.44C97.1032 179.667 97.6766 181.4 97.6766 183.64V198.36C97.6766 200.6 97.1032 202.333 95.9566 203.56C94.8099 204.787 93.1566 205.4 90.9966 205.4ZM90.9966 201.4C92.5166 201.4 93.2766 200.48 93.2766 198.64V183.36C93.2766 181.52 92.5166 180.6 90.9966 180.6C89.4766 180.6 88.7166 181.52 88.7166 183.36V198.64C88.7166 200.48 89.4766 201.4 90.9966 201.4Z" fill="black"/>
<path d="M100.652 177H107.172C109.439 177 111.092 177.533 112.132 178.6C113.172 179.64 113.692 181.253 113.692 183.44V185.16C113.692 188.067 112.732 189.907 110.812 190.68V190.76C111.879 191.08 112.626 191.733 113.052 192.72C113.506 193.707 113.732 195.027 113.732 196.68V201.6C113.732 202.4 113.759 203.053 113.812 203.56C113.866 204.04 113.999 204.52 114.212 205H109.732C109.572 204.547 109.466 204.12 109.412 203.72C109.359 203.32 109.332 202.6 109.332 201.56V196.44C109.332 195.16 109.119 194.267 108.692 193.76C108.292 193.253 107.586 193 106.572 193H105.052V205H100.652V177ZM106.652 189C107.532 189 108.186 188.773 108.612 188.32C109.066 187.867 109.292 187.107 109.292 186.04V183.88C109.292 182.867 109.106 182.133 108.732 181.68C108.386 181.227 107.826 181 107.052 181H105.052V189H106.652Z" fill="black"/>
<path d="M120.2 193.08L114.88 177H119.56L122.56 187.28H122.64L125.64 177H129.92L124.6 193.08V205H120.2V193.08Z" fill="black"/>
<path d="M1.15918 247H7.63918C9.82585 247 11.4658 247.587 12.5592 248.76C13.6525 249.933 14.1992 251.653 14.1992 253.92V256.68C14.1992 258.947 13.6525 260.667 12.5592 261.84C11.4658 263.013 9.82585 263.6 7.63918 263.6H5.55918V275H1.15918V247ZM7.63918 259.6C8.35918 259.6 8.89251 259.4 9.23918 259C9.61251 258.6 9.79918 257.92 9.79918 256.96V253.64C9.79918 252.68 9.61251 252 9.23918 251.6C8.89251 251.2 8.35918 251 7.63918 251H5.55918V259.6H7.63918Z" fill="black"/>
<path d="M16.5889 247H20.9889V271H28.2289V275H16.5889V247Z" fill="black"/>
<path d="M33.8951 247H39.8551L44.4151 275H40.0151L39.2151 269.44V269.52H34.2151L33.4151 275H29.3351L33.8951 247ZM38.6951 265.72L36.7351 251.88H36.6551L34.7351 265.72H38.6951Z" fill="black"/>
<path d="M48.7539 263.08L43.4339 247H48.1139L51.1139 257.28H51.1939L54.1939 247H58.4739L53.1539 263.08V275H48.7539V263.08Z" fill="black"/>
<path d="M60.4561 247H72.4561V251H64.8561V258.4H70.8961V262.4H64.8561V271H72.4561V275H60.4561V247Z" fill="black"/>
<path d="M74.9873 247H81.5073C83.774 247 85.4273 247.533 86.4673 248.6C87.5073 249.64 88.0273 251.253 88.0273 253.44V255.16C88.0273 258.067 87.0673 259.907 85.1473 260.68V260.76C86.214 261.08 86.9606 261.733 87.3873 262.72C87.8406 263.707 88.0673 265.027 88.0673 266.68V271.6C88.0673 272.4 88.094 273.053 88.1473 273.56C88.2006 274.04 88.334 274.52 88.5473 275H84.0673C83.9073 274.547 83.8006 274.12 83.7473 273.72C83.694 273.32 83.6673 272.6 83.6673 271.56V266.44C83.6673 265.16 83.454 264.267 83.0273 263.76C82.6273 263.253 81.9206 263 80.9073 263H79.3873V275H74.9873V247ZM80.9873 259C81.8673 259 82.5206 258.773 82.9473 258.32C83.4006 257.867 83.6273 257.107 83.6273 256.04V253.88C83.6273 252.867 83.4406 252.133 83.0673 251.68C82.7206 251.227 82.1606 251 81.3873 251H79.3873V259H80.9873Z" fill="black"/>
<path d="M100.926 247H106.886L111.446 275H107.046L106.246 269.44V269.52H101.246L100.446 275H96.3664L100.926 247ZM105.726 265.72L103.766 251.88H103.686L101.766 265.72H105.726Z" fill="black"/>
<path d="M112.912 251.24H111.472V247H115.712V250.8L113.272 256.04H111.232L112.912 251.24Z" fill="black"/>
<path d="M124.731 275.4C122.597 275.4 120.984 274.8 119.891 273.6C118.797 272.373 118.251 270.627 118.251 268.36V266.76H122.411V268.68C122.411 270.493 123.171 271.4 124.691 271.4C125.437 271.4 125.997 271.187 126.371 270.76C126.771 270.307 126.971 269.587 126.971 268.6C126.971 267.427 126.704 266.4 126.171 265.52C125.637 264.613 124.651 263.533 123.211 262.28C121.397 260.68 120.131 259.24 119.411 257.96C118.691 256.653 118.331 255.187 118.331 253.56C118.331 251.347 118.891 249.64 120.011 248.44C121.131 247.213 122.757 246.6 124.891 246.6C126.997 246.6 128.584 247.213 129.651 248.44C130.744 249.64 131.291 251.373 131.291 253.64V254.8H127.131V253.36C127.131 252.4 126.944 251.707 126.571 251.28C126.197 250.827 125.651 250.6 124.931 250.6C123.464 250.6 122.731 251.493 122.731 253.28C122.731 254.293 122.997 255.24 123.531 256.12C124.091 257 125.091 258.067 126.531 259.32C128.371 260.92 129.637 262.373 130.331 263.68C131.024 264.987 131.371 266.52 131.371 268.28C131.371 270.573 130.797 272.333 129.651 273.56C128.531 274.787 126.891 275.4 124.731 275.4Z" fill="black"/>
<path d="M1.15918 295H5.55918V306.8L11.1592 295H15.5592L10.3192 305.28L15.6392 323H11.0392L7.31918 310.52L5.55918 314.08V323H1.15918V295Z" fill="black"/>
<path d="M17.7217 295H22.1217V323H17.7217V295Z" fill="black"/>
<path d="M25.417 295H29.817V319H37.057V323H25.417V295Z" fill="black"/>
<path d="M39.167 295H43.567V319H50.807V323H39.167V295Z" fill="black"/>
<path d="M52.037 319.08L60.197 299H52.437V295H64.917V298.92L56.757 319H64.917V323H52.037V319.08Z" fill="black"/>
<path d="M73.7692 323.4C71.6092 323.4 69.9558 322.787 68.8092 321.56C67.6625 320.333 67.0892 318.6 67.0892 316.36V301.64C67.0892 299.4 67.6625 297.667 68.8092 296.44C69.9558 295.213 71.6092 294.6 73.7692 294.6C75.9292 294.6 77.5825 295.213 78.7292 296.44C79.8758 297.667 80.4492 299.4 80.4492 301.64V316.36C80.4492 318.6 79.8758 320.333 78.7292 321.56C77.5825 322.787 75.9292 323.4 73.7692 323.4ZM73.7692 319.4C75.2892 319.4 76.0492 318.48 76.0492 316.64V301.36C76.0492 299.52 75.2892 298.6 73.7692 298.6C72.2492 298.6 71.4892 299.52 71.4892 301.36V316.64C71.4892 318.48 72.2492 319.4 73.7692 319.4Z" fill="black"/>
<path d="M83.4248 295H88.9448L93.2248 311.76H93.3048V295H97.2248V323H92.7048L87.4248 302.56H87.3448V323H83.4248V295Z" fill="black"/>
<path d="M100.495 295H112.495V299H104.895V306.4H110.935V310.4H104.895V319H112.495V323H100.495V295Z" fill="black"/>
<path d="M121.433 295H133.433V299H125.833V306.4H131.873V310.4H125.833V319H133.433V323H121.433V295Z" fill="black"/>
<path d="M135.964 295H142.684C144.871 295 146.511 295.587 147.604 296.76C148.697 297.933 149.244 299.653 149.244 301.92V316.08C149.244 318.347 148.697 320.067 147.604 321.24C146.511 322.413 144.871 323 142.684 323H135.964V295ZM142.604 319C143.324 319 143.871 318.787 144.244 318.36C144.644 317.933 144.844 317.24 144.844 316.28V301.72C144.844 300.76 144.644 300.067 144.244 299.64C143.871 299.213 143.324 299 142.604 299H140.364V319H142.604Z" fill="black"/>
<path d="M158.454 323.4C156.321 323.4 154.694 322.8 153.574 321.6C152.454 320.373 151.894 318.627 151.894 316.36V301.64C151.894 299.373 152.454 297.64 153.574 296.44C154.694 295.213 156.321 294.6 158.454 294.6C160.587 294.6 162.214 295.213 163.334 296.44C164.454 297.64 165.014 299.373 165.014 301.64V304.04H160.854V301.36C160.854 299.52 160.094 298.6 158.574 298.6C157.054 298.6 156.294 299.52 156.294 301.36V316.68C156.294 318.493 157.054 319.4 158.574 319.4C160.094 319.4 160.854 318.493 160.854 316.68V311.2H158.654V307.2H165.014V316.36C165.014 318.627 164.454 320.373 163.334 321.6C162.214 322.8 160.587 323.4 158.454 323.4Z" fill="black"/>
<path d="M167.839 295H179.839V299H172.239V306.4H178.279V310.4H172.239V319H179.839V323H167.839V295Z" fill="black"/>
<path d="M1.1593 365H7.6393C9.82596 365 11.466 365.587 12.5593 366.76C13.6526 367.933 14.1993 369.653 14.1993 371.92V374.68C14.1993 376.947 13.6526 378.667 12.5593 379.84C11.466 381.013 9.82596 381.6 7.6393 381.6H5.5593V393H1.1593V365ZM7.6393 377.6C8.3593 377.6 8.89263 377.4 9.2393 377C9.61263 376.6 9.7993 375.92 9.7993 374.96V371.64C9.7993 370.68 9.61263 370 9.2393 369.6C8.89263 369.2 8.3593 369 7.6393 369H5.5593V377.6H7.6393Z" fill="black"/>
<path d="M16.589 365H20.989V389H28.229V393H16.589V365Z" fill="black"/>
<path d="M33.8952 365H39.8552L44.4152 393H40.0152L39.2152 387.44V387.52H34.2152L33.4152 393H29.3352L33.8952 365ZM38.6952 383.72L36.7352 369.88H36.6552L34.7352 383.72H38.6952Z" fill="black"/>
<path d="M48.754 381.08L43.434 365H48.114L51.114 375.28H51.194L54.194 365H58.474L53.154 381.08V393H48.754V381.08Z" fill="black"/>
<path d="M60.4562 365H72.4562V369H64.8562V376.4H70.8962V380.4H64.8562V389H72.4562V393H60.4562V365Z" fill="black"/>
<path d="M74.9874 365H81.5074C83.7741 365 85.4274 365.533 86.4674 366.6C87.5074 367.64 88.0274 369.253 88.0274 371.44V373.16C88.0274 376.067 87.0674 377.907 85.1474 378.68V378.76C86.2141 379.08 86.9608 379.733 87.3874 380.72C87.8408 381.707 88.0674 383.027 88.0674 384.68V389.6C88.0674 390.4 88.0941 391.053 88.1474 391.56C88.2008 392.04 88.3341 392.52 88.5474 393H84.0674C83.9074 392.547 83.8008 392.12 83.7474 391.72C83.6941 391.32 83.6674 390.6 83.6674 389.56V384.44C83.6674 383.16 83.4541 382.267 83.0274 381.76C82.6274 381.253 81.9208 381 80.9074 381H79.3874V393H74.9874V365ZM80.9874 377C81.8674 377 82.5208 376.773 82.9474 376.32C83.4008 375.867 83.6274 375.107 83.6274 374.04V371.88C83.6274 370.867 83.4408 370.133 83.0674 369.68C82.7208 369.227 82.1608 369 81.3874 369H79.3874V377H80.9874Z" fill="black"/>
<path d="M97.5265 365H104.166C106.433 365 108.086 365.533 109.126 366.6C110.166 367.64 110.686 369.253 110.686 371.44V372.56C110.686 374 110.446 375.173 109.966 376.08C109.513 376.987 108.806 377.64 107.846 378.04V378.12C110.033 378.867 111.126 380.813 111.126 383.96V386.36C111.126 388.52 110.553 390.173 109.406 391.32C108.286 392.44 106.633 393 104.446 393H97.5265V365ZM103.646 376.4C104.526 376.4 105.18 376.173 105.606 375.72C106.06 375.267 106.286 374.507 106.286 373.44V371.88C106.286 370.867 106.1 370.133 105.726 369.68C105.38 369.227 104.82 369 104.046 369H101.926V376.4H103.646ZM104.446 389C105.22 389 105.793 388.8 106.166 388.4C106.54 387.973 106.726 387.253 106.726 386.24V383.8C106.726 382.52 106.5 381.64 106.046 381.16C105.62 380.653 104.9 380.4 103.886 380.4H101.926V389H104.446Z" fill="black"/>
<path d="M114.904 369.24H113.464V365H117.704V368.8L115.264 374.04H113.224L114.904 369.24Z" fill="black"/>
<path d="M126.723 393.4C124.59 393.4 122.976 392.8 121.883 391.6C120.79 390.373 120.243 388.627 120.243 386.36V384.76H124.403V386.68C124.403 388.493 125.163 389.4 126.683 389.4C127.43 389.4 127.99 389.187 128.363 388.76C128.763 388.307 128.963 387.587 128.963 386.6C128.963 385.427 128.696 384.4 128.163 383.52C127.63 382.613 126.643 381.533 125.203 380.28C123.39 378.68 122.123 377.24 121.403 375.96C120.683 374.653 120.323 373.187 120.323 371.56C120.323 369.347 120.883 367.64 122.003 366.44C123.123 365.213 124.75 364.6 126.883 364.6C128.99 364.6 130.576 365.213 131.643 366.44C132.736 367.64 133.283 369.373 133.283 371.64V372.8H129.123V371.36C129.123 370.4 128.936 369.707 128.563 369.28C128.19 368.827 127.643 368.6 126.923 368.6C125.456 368.6 124.723 369.493 124.723 371.28C124.723 372.293 124.99 373.24 125.523 374.12C126.083 375 127.083 376.067 128.523 377.32C130.363 378.92 131.63 380.373 132.323 381.68C133.016 382.987 133.363 384.52 133.363 386.28C133.363 388.573 132.79 390.333 131.643 391.56C130.523 392.787 128.883 393.4 126.723 393.4Z" fill="black"/>
<path d="M142.292 365H149.012C151.199 365 152.839 365.587 153.932 366.76C155.025 367.933 155.572 369.653 155.572 371.92V386.08C155.572 388.347 155.025 390.067 153.932 391.24C152.839 392.413 151.199 393 149.012 393H142.292V365ZM148.932 389C149.652 389 150.199 388.787 150.572 388.36C150.972 387.933 151.172 387.24 151.172 386.28V371.72C151.172 370.76 150.972 370.067 150.572 369.64C150.199 369.213 149.652 369 148.932 369H146.692V389H148.932Z" fill="black"/>
<path d="M158.542 365H165.062C167.329 365 168.982 365.533 170.022 366.6C171.062 367.64 171.582 369.253 171.582 371.44V373.16C171.582 376.067 170.622 377.907 168.702 378.68V378.76C169.769 379.08 170.515 379.733 170.942 380.72C171.395 381.707 171.622 383.027 171.622 384.68V389.6C171.622 390.4 171.649 391.053 171.702 391.56C171.755 392.04 171.889 392.52 172.102 393H167.622C167.462 392.547 167.355 392.12 167.302 391.72C167.249 391.32 167.222 390.6 167.222 389.56V384.44C167.222 383.16 167.009 382.267 166.582 381.76C166.182 381.253 165.475 381 164.462 381H162.942V393H158.542V365ZM164.542 377C165.422 377 166.075 376.773 166.502 376.32C166.955 375.867 167.182 375.107 167.182 374.04V371.88C167.182 370.867 166.995 370.133 166.622 369.68C166.275 369.227 165.715 369 164.942 369H162.942V377H164.542Z" fill="black"/>
<path d="M181.035 393.4C178.875 393.4 177.222 392.787 176.075 391.56C174.928 390.333 174.355 388.6 174.355 386.36V371.64C174.355 369.4 174.928 367.667 176.075 366.44C177.222 365.213 178.875 364.6 181.035 364.6C183.195 364.6 184.848 365.213 185.995 366.44C187.142 367.667 187.715 369.4 187.715 371.64V386.36C187.715 388.6 187.142 390.333 185.995 391.56C184.848 392.787 183.195 393.4 181.035 393.4ZM181.035 389.4C182.555 389.4 183.315 388.48 183.315 386.64V371.36C183.315 369.52 182.555 368.6 181.035 368.6C179.515 368.6 178.755 369.52 178.755 371.36V386.64C178.755 388.48 179.515 389.4 181.035 389.4Z" fill="black"/>
<path d="M190.691 365H197.171C199.357 365 200.997 365.587 202.091 366.76C203.184 367.933 203.731 369.653 203.731 371.92V374.68C203.731 376.947 203.184 378.667 202.091 379.84C200.997 381.013 199.357 381.6 197.171 381.6H195.091V393H190.691V365ZM197.171 377.6C197.891 377.6 198.424 377.4 198.771 377C199.144 376.6 199.331 375.92 199.331 374.96V371.64C199.331 370.68 199.144 370 198.771 369.6C198.424 369.2 197.891 369 197.171 369H195.091V377.6H197.171Z" fill="black"/>
<path d="M0.279297 437.08L8.4393 417H0.679297V413H13.1593V416.92L4.9993 437H13.1593V441H0.279297V437.08Z" fill="black"/>
<path d="M22.0115 441.4C19.8515 441.4 18.1982 440.787 17.0515 439.56C15.9048 438.333 15.3315 436.6 15.3315 434.36V419.64C15.3315 417.4 15.9048 415.667 17.0515 414.44C18.1982 413.213 19.8515 412.6 22.0115 412.6C24.1715 412.6 25.8248 413.213 26.9715 414.44C28.1182 415.667 28.6915 417.4 28.6915 419.64V434.36C28.6915 436.6 28.1182 438.333 26.9715 439.56C25.8248 440.787 24.1715 441.4 22.0115 441.4ZM22.0115 437.4C23.5315 437.4 24.2915 436.48 24.2915 434.64V419.36C24.2915 417.52 23.5315 416.6 22.0115 416.6C20.4915 416.6 19.7315 417.52 19.7315 419.36V434.64C19.7315 436.48 20.4915 437.4 22.0115 437.4Z" fill="black"/>
<path d="M31.6671 413H37.1871L41.4671 429.76H41.5471V413H45.4671V441H40.9471L35.6671 420.56H35.5871V441H31.6671V413Z" fill="black"/>
<path d="M48.7374 413H60.7374V417H53.1374V424.4H59.1774V428.4H53.1374V437H60.7374V441H48.7374V413Z" fill="black"/>
<path d="M74.2749 441.4C72.6749 441.4 71.4616 440.853 70.6349 439.76C69.8083 438.667 69.3949 437.08 69.3949 435V432.08C69.3949 430.613 69.6483 429.387 70.1549 428.4C70.6616 427.413 71.4883 426.693 72.6349 426.24V426.16C71.5949 425.733 70.8216 425.053 70.3149 424.12C69.8349 423.16 69.5949 421.933 69.5949 420.44V419.92C69.5949 417.653 70.1416 415.933 71.2349 414.76C72.3283 413.587 73.9683 413 76.1549 413H81.1949V417H76.2349C75.5149 417 74.9549 417.213 74.5549 417.64C74.1816 418.067 73.9949 418.76 73.9949 419.72V421.44C73.9949 422.507 74.2083 423.267 74.6349 423.72C75.0883 424.173 75.7549 424.4 76.6349 424.4H78.3549V421.28H82.6749V424.4H83.9149V428.4H82.6749V437.6C82.6749 438.4 82.7016 439.053 82.7549 439.56C82.8083 440.04 82.9416 440.52 83.1549 441H78.7549C78.5416 440.413 78.4083 439.68 78.3549 438.8H78.2749C77.7949 439.68 77.2349 440.333 76.5949 440.76C75.9816 441.187 75.2083 441.4 74.2749 441.4ZM75.9149 437.4C77.3016 437.4 78.1149 436.56 78.3549 434.88V428.4H76.6749C75.6616 428.4 74.9283 428.68 74.4749 429.24C74.0216 429.773 73.7949 430.68 73.7949 431.96V434.8C73.7949 435.733 73.9816 436.4 74.3549 436.8C74.7283 437.2 75.2483 437.4 75.9149 437.4Z" fill="black"/>
<path d="M96.2009 417H91.6009V413H105.201V417H100.601V441H96.2009V417Z" fill="black"/>
<path d="M107.331 413H119.331V417H111.731V424.4H117.771V428.4H111.731V437H119.331V441H107.331V413Z" fill="black"/>
<path d="M121.862 413H128.382C130.649 413 132.302 413.533 133.342 414.6C134.382 415.64 134.902 417.253 134.902 419.44V421.16C134.902 424.067 133.942 425.907 132.022 426.68V426.76C133.089 427.08 133.836 427.733 134.262 428.72C134.716 429.707 134.942 431.027 134.942 432.68V437.6C134.942 438.4 134.969 439.053 135.022 439.56C135.076 440.04 135.209 440.52 135.422 441H130.942C130.782 440.547 130.676 440.12 130.622 439.72C130.569 439.32 130.542 438.6 130.542 437.56V432.44C130.542 431.16 130.329 430.267 129.902 429.76C129.502 429.253 128.796 429 127.782 429H126.262V441H121.862V413ZM127.862 425C128.742 425 129.396 424.773 129.822 424.32C130.276 423.867 130.502 423.107 130.502 422.04V419.88C130.502 418.867 130.316 418.133 129.942 417.68C129.596 417.227 129.036 417 128.262 417H126.262V425H127.862Z" fill="black"/>
<path d="M137.995 413H144.515C146.782 413 148.435 413.533 149.475 414.6C150.515 415.64 151.035 417.253 151.035 419.44V421.16C151.035 424.067 150.075 425.907 148.155 426.68V426.76C149.222 427.08 149.969 427.733 150.395 428.72C150.849 429.707 151.075 431.027 151.075 432.68V437.6C151.075 438.4 151.102 439.053 151.155 439.56C151.209 440.04 151.342 440.52 151.555 441H147.075C146.915 440.547 146.809 440.12 146.755 439.72C146.702 439.32 146.675 438.6 146.675 437.56V432.44C146.675 431.16 146.462 430.267 146.035 429.76C145.635 429.253 144.929 429 143.915 429H142.395V441H137.995V413ZM143.995 425C144.875 425 145.529 424.773 145.955 424.32C146.409 423.867 146.635 423.107 146.635 422.04V419.88C146.635 418.867 146.449 418.133 146.075 417.68C145.729 417.227 145.169 417 144.395 417H142.395V425H143.995Z" fill="black"/>
<path d="M154.128 413H158.528V441H154.128V413Z" fill="black"/>
<path d="M165.263 417H160.663V413H174.263V417H169.663V441H165.263V417Z" fill="black"/>
<path d="M182.597 441.4C180.437 441.4 178.784 440.787 177.637 439.56C176.491 438.333 175.917 436.6 175.917 434.36V419.64C175.917 417.4 176.491 415.667 177.637 414.44C178.784 413.213 180.437 412.6 182.597 412.6C184.757 412.6 186.411 413.213 187.557 414.44C188.704 415.667 189.277 417.4 189.277 419.64V434.36C189.277 436.6 188.704 438.333 187.557 439.56C186.411 440.787 184.757 441.4 182.597 441.4ZM182.597 437.4C184.117 437.4 184.877 436.48 184.877 434.64V419.36C184.877 417.52 184.117 416.6 182.597 416.6C181.077 416.6 180.317 417.52 180.317 419.36V434.64C180.317 436.48 181.077 437.4 182.597 437.4Z" fill="black"/>
<path d="M192.253 413H198.773C201.04 413 202.693 413.533 203.733 414.6C204.773 415.64 205.293 417.253 205.293 419.44V421.16C205.293 424.067 204.333 425.907 202.413 426.68V426.76C203.48 427.08 204.226 427.733 204.653 428.72C205.106 429.707 205.333 431.027 205.333 432.68V437.6C205.333 438.4 205.36 439.053 205.413 439.56C205.466 440.04 205.6 440.52 205.813 441H201.333C201.173 440.547 201.066 440.12 201.013 439.72C200.96 439.32 200.933 438.6 200.933 437.56V432.44C200.933 431.16 200.72 430.267 200.293 429.76C199.893 429.253 199.186 429 198.173 429H196.653V441H192.253V413ZM198.253 425C199.133 425 199.786 424.773 200.213 424.32C200.666 423.867 200.893 423.107 200.893 422.04V419.88C200.893 418.867 200.706 418.133 200.333 417.68C199.986 417.227 199.426 417 198.653 417H196.653V425H198.253Z" fill="black"/>
<path d="M211.801 429.08L206.481 413H211.161L214.161 423.28H214.241L217.241 413H221.521L216.201 429.08V441H211.801V429.08Z" fill="black"/>
<path d="M1.16 483H7.64C9.82667 483 11.4667 483.587 12.56 484.76C13.6533 485.933 14.2 487.653 14.2 489.92V492.68C14.2 494.947 13.6533 496.667 12.56 497.84C11.4667 499.013 9.82667 499.6 7.64 499.6H5.56V511H1.16V483ZM7.64 495.6C8.36 495.6 8.89333 495.4 9.24 495C9.61333 494.6 9.8 493.92 9.8 492.96V489.64C9.8 488.68 9.61333 488 9.24 487.6C8.89333 487.2 8.36 487 7.64 487H5.56V495.6H7.64Z" fill="black"/>
<path d="M16.5897 483H20.9897V507H28.2297V511H16.5897V483Z" fill="black"/>
<path d="M33.8959 483H39.8559L44.4159 511H40.0159L39.2159 505.44V505.52H34.2159L33.4159 511H29.3359L33.8959 483ZM38.6959 501.72L36.7359 487.88H36.6559L34.7359 501.72H38.6959Z" fill="black"/>
<path d="M48.7547 499.08L43.4347 483H48.1147L51.1147 493.28H51.1947L54.1947 483H58.4747L53.1547 499.08V511H48.7547V499.08Z" fill="black"/>
<path d="M60.4569 483H72.4569V487H64.8569V494.4H70.8969V498.4H64.8569V507H72.4569V511H60.4569V483Z" fill="black"/>
<path d="M74.9881 483H81.5081C83.7748 483 85.4281 483.533 86.4681 484.6C87.5081 485.64 88.0281 487.253 88.0281 489.44V491.16C88.0281 494.067 87.0681 495.907 85.1481 496.68V496.76C86.2148 497.08 86.9615 497.733 87.3881 498.72C87.8415 499.707 88.0681 501.027 88.0681 502.68V507.6C88.0681 508.4 88.0948 509.053 88.1481 509.56C88.2015 510.04 88.3348 510.52 88.5481 511H84.0681C83.9081 510.547 83.8015 510.12 83.7481 509.72C83.6948 509.32 83.6681 508.6 83.6681 507.56V502.44C83.6681 501.16 83.4548 500.267 83.0281 499.76C82.6281 499.253 81.9215 499 80.9081 499H79.3881V511H74.9881V483ZM80.9881 495C81.8681 495 82.5215 494.773 82.9481 494.32C83.4015 493.867 83.6281 493.107 83.6281 492.04V489.88C83.6281 488.867 83.4415 488.133 83.0681 487.68C82.7215 487.227 82.1615 487 81.3881 487H79.3881V495H80.9881Z" fill="black"/>
<path d="M97.5272 483H104.167C106.434 483 108.087 483.533 109.127 484.6C110.167 485.64 110.687 487.253 110.687 489.44V490.56C110.687 492 110.447 493.173 109.967 494.08C109.514 494.987 108.807 495.64 107.847 496.04V496.12C110.034 496.867 111.127 498.813 111.127 501.96V504.36C111.127 506.52 110.554 508.173 109.407 509.32C108.287 510.44 106.634 511 104.447 511H97.5272V483ZM103.647 494.4C104.527 494.4 105.181 494.173 105.607 493.72C106.061 493.267 106.287 492.507 106.287 491.44V489.88C106.287 488.867 106.101 488.133 105.727 487.68C105.381 487.227 104.821 487 104.047 487H101.927V494.4H103.647ZM104.447 507C105.221 507 105.794 506.8 106.167 506.4C106.541 505.973 106.727 505.253 106.727 504.24V501.8C106.727 500.52 106.501 499.64 106.047 499.16C105.621 498.653 104.901 498.4 103.887 498.4H101.927V507H104.447Z" fill="black"/>
<path d="M114.905 487.24H113.465V483H117.705V486.8L115.265 492.04H113.225L114.905 487.24Z" fill="black"/>
<path d="M126.724 511.4C124.59 511.4 122.977 510.8 121.884 509.6C120.79 508.373 120.244 506.627 120.244 504.36V502.76H124.404V504.68C124.404 506.493 125.164 507.4 126.684 507.4C127.43 507.4 127.99 507.187 128.364 506.76C128.764 506.307 128.964 505.587 128.964 504.6C128.964 503.427 128.697 502.4 128.164 501.52C127.63 500.613 126.644 499.533 125.204 498.28C123.39 496.68 122.124 495.24 121.404 493.96C120.684 492.653 120.324 491.187 120.324 489.56C120.324 487.347 120.884 485.64 122.004 484.44C123.124 483.213 124.75 482.6 126.884 482.6C128.99 482.6 130.577 483.213 131.644 484.44C132.737 485.64 133.284 487.373 133.284 489.64V490.8H129.124V489.36C129.124 488.4 128.937 487.707 128.564 487.28C128.19 486.827 127.644 486.6 126.924 486.6C125.457 486.6 124.724 487.493 124.724 489.28C124.724 490.293 124.99 491.24 125.524 492.12C126.084 493 127.084 494.067 128.524 495.32C130.364 496.92 131.63 498.373 132.324 499.68C133.017 500.987 133.364 502.52 133.364 504.28C133.364 506.573 132.79 508.333 131.644 509.56C130.524 510.787 128.884 511.4 126.724 511.4Z" fill="black"/>
<path d="M4.6 535H0V531H13.6V535H9V559H4.6V535Z" fill="black"/>
<path d="M15.7303 531H27.7303V535H20.1303V542.4H26.1703V546.4H20.1303V555H27.7303V559H15.7303V531Z" fill="black"/>
<path d="M30.2616 531H36.7816C39.0482 531 40.7016 531.533 41.7416 532.6C42.7816 533.64 43.3016 535.253 43.3016 537.44V539.16C43.3016 542.067 42.3416 543.907 40.4216 544.68V544.76C41.4882 545.08 42.2349 545.733 42.6616 546.72C43.1149 547.707 43.3416 549.027 43.3416 550.68V555.6C43.3416 556.4 43.3682 557.053 43.4216 557.56C43.4749 558.04 43.6082 558.52 43.8216 559H39.3416C39.1816 558.547 39.0749 558.12 39.0216 557.72C38.9682 557.32 38.9416 556.6 38.9416 555.56V550.44C38.9416 549.16 38.7282 548.267 38.3016 547.76C37.9016 547.253 37.1949 547 36.1816 547H34.6616V559H30.2616V531ZM36.2616 543C37.1416 543 37.7949 542.773 38.2216 542.32C38.6749 541.867 38.9016 541.107 38.9016 540.04V537.88C38.9016 536.867 38.7149 536.133 38.3416 535.68C37.9949 535.227 37.4349 535 36.6616 535H34.6616V543H36.2616Z" fill="black"/>
<path d="M46.3944 531H52.9144C55.181 531 56.8344 531.533 57.8744 532.6C58.9144 533.64 59.4344 535.253 59.4344 537.44V539.16C59.4344 542.067 58.4744 543.907 56.5544 544.68V544.76C57.621 545.08 58.3677 545.733 58.7944 546.72C59.2477 547.707 59.4744 549.027 59.4744 550.68V555.6C59.4744 556.4 59.501 557.053 59.5544 557.56C59.6077 558.04 59.741 558.52 59.9544 559H55.4744C55.3144 558.547 55.2077 558.12 55.1544 557.72C55.101 557.32 55.0744 556.6 55.0744 555.56V550.44C55.0744 549.16 54.861 548.267 54.4344 547.76C54.0344 547.253 53.3277 547 52.3144 547H50.7944V559H46.3944V531ZM52.3944 543C53.2744 543 53.9277 542.773 54.3544 542.32C54.8077 541.867 55.0344 541.107 55.0344 540.04V537.88C55.0344 536.867 54.8477 536.133 54.4744 535.68C54.1277 535.227 53.5677 535 52.7944 535H50.7944V543H52.3944Z" fill="black"/>
<path d="M62.5272 531H66.9272V559H62.5272V531Z" fill="black"/>
<path d="M73.6625 535H69.0625V531H82.6625V535H78.0625V559H73.6625V535Z" fill="black"/>
<path d="M90.9966 559.4C88.8366 559.4 87.1832 558.787 86.0366 557.56C84.8899 556.333 84.3166 554.6 84.3166 552.36V537.64C84.3166 535.4 84.8899 533.667 86.0366 532.44C87.1832 531.213 88.8366 530.6 90.9966 530.6C93.1566 530.6 94.8099 531.213 95.9566 532.44C97.1032 533.667 97.6766 535.4 97.6766 537.64V552.36C97.6766 554.6 97.1032 556.333 95.9566 557.56C94.8099 558.787 93.1566 559.4 90.9966 559.4ZM90.9966 555.4C92.5166 555.4 93.2766 554.48 93.2766 552.64V537.36C93.2766 535.52 92.5166 534.6 90.9966 534.6C89.4766 534.6 88.7166 535.52 88.7166 537.36V552.64C88.7166 554.48 89.4766 555.4 90.9966 555.4Z" fill="black"/>
<path d="M100.652 531H107.172C109.439 531 111.092 531.533 112.132 532.6C113.172 533.64 113.692 535.253 113.692 537.44V539.16C113.692 542.067 112.732 543.907 110.812 544.68V544.76C111.879 545.08 112.626 545.733 113.052 546.72C113.506 547.707 113.732 549.027 113.732 550.68V555.6C113.732 556.4 113.759 557.053 113.812 557.56C113.866 558.04 113.999 558.52 114.212 559H109.732C109.572 558.547 109.466 558.12 109.412 557.72C109.359 557.32 109.332 556.6 109.332 555.56V550.44C109.332 549.16 109.119 548.267 108.692 547.76C108.292 547.253 107.586 547 106.572 547H105.052V559H100.652V531ZM106.652 543C107.532 543 108.186 542.773 108.612 542.32C109.066 541.867 109.292 541.107 109.292 540.04V537.88C109.292 536.867 109.106 536.133 108.732 535.68C108.386 535.227 107.826 535 107.052 535H105.052V543H106.652Z" fill="black"/>
<path d="M120.2 547.08L114.88 531H119.56L122.56 541.28H122.64L125.64 531H129.92L124.6 547.08V559H120.2V547.08Z" fill="black"/>
<path d="M1.15918 601H7.63918C9.82585 601 11.4658 601.587 12.5592 602.76C13.6525 603.933 14.1992 605.653 14.1992 607.92V610.68C14.1992 612.947 13.6525 614.667 12.5592 615.84C11.4658 617.013 9.82585 617.6 7.63918 617.6H5.55918V629H1.15918V601ZM7.63918 613.6C8.35918 613.6 8.89251 613.4 9.23918 613C9.61251 612.6 9.79918 611.92 9.79918 610.96V607.64C9.79918 606.68 9.61251 606 9.23918 605.6C8.89251 605.2 8.35918 605 7.63918 605H5.55918V613.6H7.63918Z" fill="black"/>
<path d="M16.5889 601H20.9889V625H28.2289V629H16.5889V601Z" fill="black"/>
<path d="M33.8951 601H39.8551L44.4151 629H40.0151L39.2151 623.44V623.52H34.2151L33.4151 629H29.3351L33.8951 601ZM38.6951 619.72L36.7351 605.88H36.6551L34.7351 619.72H38.6951Z" fill="black"/>
<path d="M48.7539 617.08L43.4339 601H48.1139L51.1139 611.28H51.1939L54.1939 601H58.4739L53.1539 617.08V629H48.7539V617.08Z" fill="black"/>
<path d="M60.4561 601H72.4561V605H64.8561V612.4H70.8961V616.4H64.8561V625H72.4561V629H60.4561V601Z" fill="black"/>
<path d="M74.9873 601H81.5073C83.774 601 85.4273 601.533 86.4673 602.6C87.5073 603.64 88.0273 605.253 88.0273 607.44V609.16C88.0273 612.067 87.0673 613.907 85.1473 614.68V614.76C86.214 615.08 86.9606 615.733 87.3873 616.72C87.8406 617.707 88.0673 619.027 88.0673 620.68V625.6C88.0673 626.4 88.094 627.053 88.1473 627.56C88.2006 628.04 88.334 628.52 88.5473 629H84.0673C83.9073 628.547 83.8006 628.12 83.7473 627.72C83.694 627.32 83.6673 626.6 83.6673 625.56V620.44C83.6673 619.16 83.454 618.267 83.0273 617.76C82.6273 617.253 81.9206 617 80.9073 617H79.3873V629H74.9873V601ZM80.9873 613C81.8673 613 82.5206 612.773 82.9473 612.32C83.4006 611.867 83.6273 611.107 83.6273 610.04V607.88C83.6273 606.867 83.4406 606.133 83.0673 605.68C82.7206 605.227 82.1606 605 81.3873 605H79.3873V613H80.9873Z" fill="black"/>
<path d="M97.5264 601H104.166C106.433 601 108.086 601.533 109.126 602.6C110.166 603.64 110.686 605.253 110.686 607.44V608.56C110.686 610 110.446 611.173 109.966 612.08C109.513 612.987 108.806 613.64 107.846 614.04V614.12C110.033 614.867 111.126 616.813 111.126 619.96V622.36C111.126 624.52 110.553 626.173 109.406 627.32C108.286 628.44 106.633 629 104.446 629H97.5264V601ZM103.646 612.4C104.526 612.4 105.18 612.173 105.606 611.72C106.06 611.267 106.286 610.507 106.286 609.44V607.88C106.286 606.867 106.1 606.133 105.726 605.68C105.38 605.227 104.82 605 104.046 605H101.926V612.4H103.646ZM104.446 625C105.22 625 105.793 624.8 106.166 624.4C106.54 623.973 106.726 623.253 106.726 622.24V619.8C106.726 618.52 106.5 617.64 106.046 617.16C105.62 616.653 104.9 616.4 103.886 616.4H101.926V625H104.446Z" fill="black"/>
<path d="M114.904 605.24H113.464V601H117.704V604.8L115.264 610.04H113.224L114.904 605.24Z" fill="black"/>
<path d="M126.723 629.4C124.59 629.4 122.976 628.8 121.883 627.6C120.79 626.373 120.243 624.627 120.243 622.36V620.76H124.403V622.68C124.403 624.493 125.163 625.4 126.683 625.4C127.43 625.4 127.99 625.187 128.363 624.76C128.763 624.307 128.963 623.587 128.963 622.6C128.963 621.427 128.696 620.4 128.163 619.52C127.63 618.613 126.643 617.533 125.203 616.28C123.39 614.68 122.123 613.24 121.403 611.96C120.683 610.653 120.323 609.187 120.323 607.56C120.323 605.347 120.883 603.64 122.003 602.44C123.123 601.213 124.75 600.6 126.883 600.6C128.99 600.6 130.576 601.213 131.643 602.44C132.736 603.64 133.283 605.373 133.283 607.64V608.8H129.123V607.36C129.123 606.4 128.936 605.707 128.563 605.28C128.19 604.827 127.643 604.6 126.923 604.6C125.456 604.6 124.723 605.493 124.723 607.28C124.723 608.293 124.99 609.24 125.523 610.12C126.083 611 127.083 612.067 128.523 613.32C130.363 614.92 131.63 616.373 132.323 617.68C133.016 618.987 133.363 620.52 133.363 622.28C133.363 624.573 132.79 626.333 131.643 627.56C130.523 628.787 128.883 629.4 126.723 629.4Z" fill="black"/>
<path d="M1.15918 649H5.55918V660.8L11.1592 649H15.5592L10.3192 659.28L15.6392 677H11.0392L7.31918 664.52L5.55918 668.08V677H1.15918V649Z" fill="black"/>
<path d="M17.7217 649H22.1217V677H17.7217V649Z" fill="black"/>
<path d="M25.417 649H29.817V673H37.057V677H25.417V649Z" fill="black"/>
<path d="M39.167 649H43.567V673H50.807V677H39.167V649Z" fill="black"/>
<path d="M52.037 673.08L60.197 653H52.437V649H64.917V652.92L56.757 673H64.917V677H52.037V673.08Z" fill="black"/>
<path d="M73.7692 677.4C71.6092 677.4 69.9558 676.787 68.8092 675.56C67.6625 674.333 67.0892 672.6 67.0892 670.36V655.64C67.0892 653.4 67.6625 651.667 68.8092 650.44C69.9558 649.213 71.6092 648.6 73.7692 648.6C75.9292 648.6 77.5825 649.213 78.7292 650.44C79.8758 651.667 80.4492 653.4 80.4492 655.64V670.36C80.4492 672.6 79.8758 674.333 78.7292 675.56C77.5825 676.787 75.9292 677.4 73.7692 677.4ZM73.7692 673.4C75.2892 673.4 76.0492 672.48 76.0492 670.64V655.36C76.0492 653.52 75.2892 652.6 73.7692 652.6C72.2492 652.6 71.4892 653.52 71.4892 655.36V670.64C71.4892 672.48 72.2492 673.4 73.7692 673.4Z" fill="black"/>
<path d="M83.4248 649H88.9448L93.2248 665.76H93.3048V649H97.2248V677H92.7048L87.4248 656.56H87.3448V677H83.4248V649Z" fill="black"/>
<path d="M100.495 649H112.495V653H104.895V660.4H110.935V664.4H104.895V673H112.495V677H100.495V649Z" fill="black"/>
<path d="M121.433 649H133.433V653H125.833V660.4H131.873V664.4H125.833V673H133.433V677H121.433V649Z" fill="black"/>
<path d="M135.964 649H142.684C144.871 649 146.511 649.587 147.604 650.76C148.697 651.933 149.244 653.653 149.244 655.92V670.08C149.244 672.347 148.697 674.067 147.604 675.24C146.511 676.413 144.871 677 142.684 677H135.964V649ZM142.604 673C143.324 673 143.871 672.787 144.244 672.36C144.644 671.933 144.844 671.24 144.844 670.28V655.72C144.844 654.76 144.644 654.067 144.244 653.64C143.871 653.213 143.324 653 142.604 653H140.364V673H142.604Z" fill="black"/>
<path d="M158.454 677.4C156.321 677.4 154.694 676.8 153.574 675.6C152.454 674.373 151.894 672.627 151.894 670.36V655.64C151.894 653.373 152.454 651.64 153.574 650.44C154.694 649.213 156.321 648.6 158.454 648.6C160.587 648.6 162.214 649.213 163.334 650.44C164.454 651.64 165.014 653.373 165.014 655.64V658.04H160.854V655.36C160.854 653.52 160.094 652.6 158.574 652.6C157.054 652.6 156.294 653.52 156.294 655.36V670.68C156.294 672.493 157.054 673.4 158.574 673.4C160.094 673.4 160.854 672.493 160.854 670.68V665.2H158.654V661.2H165.014V670.36C165.014 672.627 164.454 674.373 163.334 675.6C162.214 676.8 160.587 677.4 158.454 677.4Z" fill="black"/>
<path d="M167.839 649H179.839V653H172.239V660.4H178.279V664.4H172.239V673H179.839V677H167.839V649Z" fill="black"/>
<path d="M7.51984 747.4C5.35984 747.4 3.70651 746.787 2.55984 745.56C1.41318 744.333 0.839844 742.6 0.839844 740.36V725.64C0.839844 723.4 1.41318 721.667 2.55984 720.44C3.70651 719.213 5.35984 718.6 7.51984 718.6C9.67984 718.6 11.3332 719.213 12.4798 720.44C13.6265 721.667 14.1998 723.4 14.1998 725.64V740.36C14.1998 742.6 13.6265 744.333 12.4798 745.56C11.3332 746.787 9.67984 747.4 7.51984 747.4ZM7.51984 743.4C9.03984 743.4 9.79984 742.48 9.79984 740.64V725.36C9.79984 723.52 9.03984 722.6 7.51984 722.6C5.99984 722.6 5.23984 723.52 5.23984 725.36V740.64C5.23984 742.48 5.99984 743.4 7.51984 743.4Z" fill="black"/>
<path d="M17.1755 719H23.8155C26.0821 719 27.7355 719.533 28.7755 720.6C29.8155 721.64 30.3355 723.253 30.3355 725.44V726.56C30.3355 728 30.0955 729.173 29.6155 730.08C29.1621 730.987 28.4555 731.64 27.4955 732.04V732.12C29.6821 732.867 30.7755 734.813 30.7755 737.96V740.36C30.7755 742.52 30.2021 744.173 29.0555 745.32C27.9355 746.44 26.2821 747 24.0955 747H17.1755V719ZM23.2955 730.4C24.1755 730.4 24.8288 730.173 25.2555 729.72C25.7088 729.267 25.9355 728.507 25.9355 727.44V725.88C25.9355 724.867 25.7488 724.133 25.3755 723.68C25.0288 723.227 24.4688 723 23.6955 723H21.5755V730.4H23.2955ZM24.0955 743C24.8688 743 25.4421 742.8 25.8155 742.4C26.1888 741.973 26.3755 741.253 26.3755 740.24V737.8C26.3755 736.52 26.1488 735.64 25.6955 735.16C25.2688 734.653 24.5488 734.4 23.5355 734.4H21.5755V743H24.0955Z" fill="black"/>
<path d="M34.3873 747.16C33.5873 747.16 32.9073 747.107 32.3473 747V743C32.774 743.107 33.254 743.16 33.7873 743.16C34.6673 743.16 35.3207 742.947 35.7473 742.52C36.174 742.067 36.3873 741.387 36.3873 740.48V719H40.7873V740.36C40.7873 742.653 40.254 744.36 39.1873 745.48C38.1473 746.6 36.5473 747.16 34.3873 747.16Z" fill="black"/>
<path d="M43.9333 719H55.9333V723H48.3333V730.4H54.3733V734.4H48.3333V743H55.9333V747H43.9333V719Z" fill="black"/>
<path d="M64.6645 747.4C62.5579 747.4 60.9445 746.8 59.8245 745.6C58.7312 744.4 58.1845 742.707 58.1845 740.52V725.48C58.1845 723.293 58.7312 721.6 59.8245 720.4C60.9445 719.2 62.5579 718.6 64.6645 718.6C66.7712 718.6 68.3712 719.2 69.4645 720.4C70.5845 721.6 71.1445 723.293 71.1445 725.48V728.44H66.9845V725.2C66.9845 723.467 66.2512 722.6 64.7845 722.6C63.3179 722.6 62.5845 723.467 62.5845 725.2V740.84C62.5845 742.547 63.3179 743.4 64.7845 743.4C66.2512 743.4 66.9845 742.547 66.9845 740.84V736.56H71.1445V740.52C71.1445 742.707 70.5845 744.4 69.4645 745.6C68.3712 746.8 66.7712 747.4 64.6645 747.4Z" fill="black"/>
<path d="M77.217 723H72.617V719H86.217V723H81.617V747H77.217V723Z" fill="black"/>
<path d="M88.3473 719H92.7473V747H88.3473V719Z" fill="black"/>
<path d="M94.8827 719H99.3227L102.203 740.72H102.283L105.163 719H109.203L104.963 747H99.1227L94.8827 719Z" fill="black"/>
<path d="M111.316 719H123.316V723H115.716V730.4H121.756V734.4H115.716V743H123.316V747H111.316V719Z" fill="black"/>
<path d="M132.254 719H138.534L141.334 739.04H141.414L144.214 719H150.494V747H146.334V725.8H146.254L143.054 747H139.374L136.174 725.8H136.094V747H132.254V719Z" fill="black"/>
<path d="M157.177 719H163.137L167.697 747H163.297L162.497 741.44V741.52H157.497L156.697 747H152.617L157.177 719ZM161.977 737.72L160.017 723.88H159.937L158.017 737.72H161.977Z" fill="black"/>
<path d="M169.832 719H176.352C178.618 719 180.272 719.533 181.312 720.6C182.352 721.64 182.872 723.253 182.872 725.44V727.16C182.872 730.067 181.912 731.907 179.992 732.68V732.76C181.058 733.08 181.805 733.733 182.232 734.72C182.685 735.707 182.912 737.027 182.912 738.68V743.6C182.912 744.4 182.938 745.053 182.992 745.56C183.045 746.04 183.178 746.52 183.392 747H178.912C178.752 746.547 178.645 746.12 178.592 745.72C178.538 745.32 178.512 744.6 178.512 743.56V738.44C178.512 737.16 178.298 736.267 177.872 735.76C177.472 735.253 176.765 735 175.752 735H174.232V747H169.832V719ZM175.832 731C176.712 731 177.365 730.773 177.792 730.32C178.245 729.867 178.472 729.107 178.472 728.04V725.88C178.472 724.867 178.285 724.133 177.912 723.68C177.565 723.227 177.005 723 176.232 723H174.232V731H175.832Z" fill="black"/>
<path d="M185.965 719H190.365V730.8L195.965 719H200.365L195.125 729.28L200.445 747H195.845L192.125 734.52L190.365 738.08V747H185.965V719Z" fill="black"/>
<path d="M202.527 719H214.527V723H206.927V730.4H212.967V734.4H206.927V743H214.527V747H202.527V719Z" fill="black"/>
<path d="M217.058 719H223.578C225.845 719 227.498 719.533 228.538 720.6C229.578 721.64 230.098 723.253 230.098 725.44V727.16C230.098 730.067 229.138 731.907 227.218 732.68V732.76C228.285 733.08 229.032 733.733 229.458 734.72C229.912 735.707 230.138 737.027 230.138 738.68V743.6C230.138 744.4 230.165 745.053 230.218 745.56C230.272 746.04 230.405 746.52 230.618 747H226.138C225.978 746.547 225.872 746.12 225.818 745.72C225.765 745.32 225.738 744.6 225.738 743.56V738.44C225.738 737.16 225.525 736.267 225.098 735.76C224.698 735.253 223.992 735 222.978 735H221.458V747H217.058V719ZM223.058 731C223.938 731 224.592 730.773 225.018 730.32C225.472 729.867 225.698 729.107 225.698 728.04V725.88C225.698 724.867 225.512 724.133 225.138 723.68C224.792 723.227 224.232 723 223.458 723H221.458V731H223.058Z" fill="black"/>
<path d="M7.35988 822.4C5.25322 822.4 3.63988 821.8 2.51988 820.6C1.42655 819.4 0.879883 817.707 0.879883 815.52V800.48C0.879883 798.293 1.42655 796.6 2.51988 795.4C3.63988 794.2 5.25322 793.6 7.35988 793.6C9.46655 793.6 11.0665 794.2 12.1599 795.4C13.2799 796.6 13.8399 798.293 13.8399 800.48V803.44H9.67988V800.2C9.67988 798.467 8.94655 797.6 7.47988 797.6C6.01322 797.6 5.27988 798.467 5.27988 800.2V815.84C5.27988 817.547 6.01322 818.4 7.47988 818.4C8.94655 818.4 9.67988 817.547 9.67988 815.84V811.56H13.8399V815.52C13.8399 817.707 13.2799 819.4 12.1599 820.6C11.0665 821.8 9.46655 822.4 7.35988 822.4Z" fill="black"/>
<path d="M16.4724 794H28.4724V798H20.8724V805.4H26.9124V809.4H20.8724V818H28.4724V822H16.4724V794Z" fill="black"/>
<path d="M31.0036 794H36.5236L40.8036 810.76H40.8836V794H44.8036V822H40.2836L35.0036 801.56H34.9236V822H31.0036V794Z" fill="black"/>
<path d="M51.5139 798H46.9139V794H60.5139V798H55.9139V822H51.5139V798Z" fill="black"/>
<path d="M62.6443 794H69.1643C71.4309 794 73.0843 794.533 74.1243 795.6C75.1643 796.64 75.6843 798.253 75.6843 800.44V802.16C75.6843 805.067 74.7243 806.907 72.8043 807.68V807.76C73.8709 808.08 74.6176 808.733 75.0443 809.72C75.4976 810.707 75.7243 812.027 75.7243 813.68V818.6C75.7243 819.4 75.7509 820.053 75.8043 820.56C75.8576 821.04 75.9909 821.52 76.2043 822H71.7243C71.5643 821.547 71.4576 821.12 71.4043 820.72C71.3509 820.32 71.3243 819.6 71.3243 818.56V813.44C71.3243 812.16 71.1109 811.267 70.6843 810.76C70.2843 810.253 69.5776 810 68.5643 810H67.0443V822H62.6443V794ZM68.6443 806C69.5243 806 70.1776 805.773 70.6043 805.32C71.0576 804.867 71.2843 804.107 71.2843 803.04V800.88C71.2843 799.867 71.0976 799.133 70.7243 798.68C70.3776 798.227 69.8176 798 69.0443 798H67.0443V806H68.6443Z" fill="black"/>
<path d="M78.7771 794H90.7771V798H83.1771V805.4H89.2171V809.4H83.1771V818H90.7771V822H78.7771V794Z" fill="black"/>
<path d="M99.7146 794H104.115V818H111.355V822H99.7146V794Z" fill="black"/>
<path d="M113.465 794H117.865V822H113.465V794Z" fill="black"/>
<path d="M121.16 794H126.68L130.96 810.76H131.04V794H134.96V822H130.44L125.16 801.56H125.08V822H121.16V794Z" fill="black"/>
<path d="M138.23 794H150.23V798H142.63V805.4H148.67V809.4H142.63V818H150.23V822H138.23V794Z" fill="black"/>
<path d="M1.15918 869H6.67918L10.9592 885.76H11.0392V869H14.9592V897H10.4392L5.15918 876.56H5.07918V897H1.15918V869Z" fill="black"/>
<path d="M18.2295 869H30.2295V873H22.6295V880.4H28.6695V884.4H22.6295V893H30.2295V897H18.2295V869Z" fill="black"/>
<path d="M39.1607 897.4C37.0274 897.4 35.4007 896.8 34.2807 895.6C33.1607 894.373 32.6007 892.627 32.6007 890.36V869H37.0007V890.68C37.0007 891.64 37.1874 892.333 37.5607 892.76C37.9607 893.187 38.5207 893.4 39.2407 893.4C39.9607 893.4 40.5074 893.187 40.8807 892.76C41.2807 892.333 41.4807 891.64 41.4807 890.68V869H45.7207V890.36C45.7207 892.627 45.1607 894.373 44.0407 895.6C42.9207 896.8 41.2941 897.4 39.1607 897.4Z" fill="black"/>
<path d="M52.2945 873H47.6945V869H61.2945V873H56.6945V897H52.2945V873Z" fill="black"/>
<path d="M63.4248 869H69.9448C72.2115 869 73.8648 869.533 74.9048 870.6C75.9448 871.64 76.4648 873.253 76.4648 875.44V877.16C76.4648 880.067 75.5048 881.907 73.5848 882.68V882.76C74.6515 883.08 75.3981 883.733 75.8248 884.72C76.2781 885.707 76.5048 887.027 76.5048 888.68V893.6C76.5048 894.4 76.5315 895.053 76.5848 895.56C76.6381 896.04 76.7715 896.52 76.9848 897H72.5048C72.3448 896.547 72.2381 896.12 72.1848 895.72C72.1315 895.32 72.1048 894.6 72.1048 893.56V888.44C72.1048 887.16 71.8915 886.267 71.4648 885.76C71.0648 885.253 70.3581 885 69.3448 885H67.8248V897H63.4248V869ZM69.4248 881C70.3048 881 70.9581 880.773 71.3848 880.32C71.8381 879.867 72.0648 879.107 72.0648 878.04V875.88C72.0648 874.867 71.8781 874.133 71.5048 873.68C71.1581 873.227 70.5981 873 69.8248 873H67.8248V881H69.4248Z" fill="black"/>
<path d="M82.9576 869H88.9176L93.4776 897H89.0776L88.2776 891.44V891.52H83.2776L82.4776 897H78.3976L82.9576 869ZM87.7576 887.72L85.7976 873.88H85.7176L83.7976 887.72H87.7576Z" fill="black"/>
<path d="M95.6123 869H100.012V893H107.252V897H95.6123V869Z" fill="black"/>
<path d="M1.15918 917H5.55918V928.8L11.1592 917H15.5592L10.3192 927.28L15.6392 945H11.0392L7.31918 932.52L5.55918 936.08V945H1.15918V917Z" fill="black"/>
<path d="M17.7217 917H22.1217V945H17.7217V917Z" fill="black"/>
<path d="M25.417 917H29.817V941H37.057V945H25.417V917Z" fill="black"/>
<path d="M39.167 917H43.567V941H50.807V945H39.167V917Z" fill="black"/>
<path d="M52.037 941.08L60.197 921H52.437V917H64.917V920.92L56.757 941H64.917V945H52.037V941.08Z" fill="black"/>
<path d="M73.7692 945.4C71.6092 945.4 69.9558 944.787 68.8092 943.56C67.6625 942.333 67.0892 940.6 67.0892 938.36V923.64C67.0892 921.4 67.6625 919.667 68.8092 918.44C69.9558 917.213 71.6092 916.6 73.7692 916.6C75.9292 916.6 77.5825 917.213 78.7292 918.44C79.8758 919.667 80.4492 921.4 80.4492 923.64V938.36C80.4492 940.6 79.8758 942.333 78.7292 943.56C77.5825 944.787 75.9292 945.4 73.7692 945.4ZM73.7692 941.4C75.2892 941.4 76.0492 940.48 76.0492 938.64V923.36C76.0492 921.52 75.2892 920.6 73.7692 920.6C72.2492 920.6 71.4892 921.52 71.4892 923.36V938.64C71.4892 940.48 72.2492 941.4 73.7692 941.4Z" fill="black"/>
<path d="M83.4248 917H88.9448L93.2248 933.76H93.3048V917H97.2248V945H92.7048L87.4248 924.56H87.3448V945H83.4248V917Z" fill="black"/>
<path d="M100.495 917H112.495V921H104.895V928.4H110.935V932.4H104.895V941H112.495V945H100.495V917Z" fill="black"/>
<path d="M121.433 917H133.433V921H125.833V928.4H131.873V932.4H125.833V941H133.433V945H121.433V917Z" fill="black"/>
<path d="M135.964 917H142.684C144.871 917 146.511 917.587 147.604 918.76C148.697 919.933 149.244 921.653 149.244 923.92V938.08C149.244 940.347 148.697 942.067 147.604 943.24C146.511 944.413 144.871 945 142.684 945H135.964V917ZM142.604 941C143.324 941 143.871 940.787 144.244 940.36C144.644 939.933 144.844 939.24 144.844 938.28V923.72C144.844 922.76 144.644 922.067 144.244 921.64C143.871 921.213 143.324 921 142.604 921H140.364V941H142.604Z" fill="black"/>
<path d="M158.454 945.4C156.321 945.4 154.694 944.8 153.574 943.6C152.454 942.373 151.894 940.627 151.894 938.36V923.64C151.894 921.373 152.454 919.64 153.574 918.44C154.694 917.213 156.321 916.6 158.454 916.6C160.587 916.6 162.214 917.213 163.334 918.44C164.454 919.64 165.014 921.373 165.014 923.64V926.04H160.854V923.36C160.854 921.52 160.094 920.6 158.574 920.6C157.054 920.6 156.294 921.52 156.294 923.36V938.68C156.294 940.493 157.054 941.4 158.574 941.4C160.094 941.4 160.854 940.493 160.854 938.68V933.2H158.654V929.2H165.014V938.36C165.014 940.627 164.454 942.373 163.334 943.6C162.214 944.8 160.587 945.4 158.454 945.4Z" fill="black"/>
<path d="M167.839 917H179.839V921H172.239V928.4H178.279V932.4H172.239V941H179.839V945H167.839V917Z" fill="black"/>
</svg>
