<svg width="60" height="60" viewBox="0 0 60 60" fill="none" xmlns="http://www.w3.org/2000/svg">
<path d="M59.6123 30.0448C57.9037 27.7196 53.601 22.7462 46.9567 19L40.7555 25.3295C41.7045 27.0735 42.2108 29.1401 42.2108 31.2716C42.2108 38.1827 36.7689 43.7371 29.9981 43.7371C27.9099 43.7371 25.8852 43.2203 24.1765 42.2517L20 46.5146C23.0372 47.4188 26.3278 48 29.998 48C46.5769 48 56.7014 36.3742 59.6755 32.4989C60.1182 31.7884 60.1182 30.7554 59.6119 30.0449L59.6123 30.0448Z" fill="white"/>
<path d="M30.2504 40C35.0629 40 39 36.0624 39 31.2501C39 30.1254 38.7502 29.0001 38.3748 28L27 39.3751C28.0005 39.75 29.1257 39.9999 30.2505 39.9999L30.2504 40Z" fill="white"/>
<path d="M53.3749 5.61119C52.5524 4.79627 51.2242 4.79627 50.4018 5.61119L39.5212 16.3914C36.6746 15.5765 33.5117 15.075 30.0955 15.075C13.5216 15.075 3.4001 26.3567 0.426923 30.1172C-0.142308 30.8067 -0.142308 31.8096 0.426923 32.499C2.13503 34.6929 6.24676 39.3935 12.6359 42.9658L4.09573 51.4273C3.27322 52.2422 3.27322 53.5582 4.09573 54.3731C4.53876 54.812 5.04443 55 5.61406 55C6.18329 55 6.68941 54.812 7.13239 54.3731L53.4381 8.49439C54.1975 7.80493 54.1975 6.42609 53.375 5.61153L53.3749 5.61119ZM17.8233 31.3709C17.8233 24.6644 23.3267 19.2745 30.0323 19.2745C31.9302 19.2745 33.7645 19.7135 35.4096 20.5279L32.8158 23.0977C31.9302 22.8472 31.0446 22.6588 30.0323 22.6588C25.1613 22.6588 21.1763 26.6075 21.1763 31.4332C21.1763 32.3731 21.366 33.3136 21.6193 34.191L19.0256 36.7608C18.2661 35.0685 17.8235 33.2507 17.8235 31.3707L17.8233 31.3709Z" fill="white"/>
</svg>
