<svg width="60" height="60" viewBox="0 0 60 60" fill="none" xmlns="http://www.w3.org/2000/svg">
<path d="M59.6213 29.8262C56.7181 26.1194 46.5579 15 30.0236 15C13.4893 15 3.39198 26.1197 0.425904 29.8262C-0.141968 30.5058 -0.141968 31.4943 0.425904 32.1738C3.3291 35.8806 13.4893 47 30.0236 47C46.5579 47 56.6552 35.8803 59.6213 32.1738C60.1262 31.4942 60.1262 30.5057 59.6213 29.8262V29.8262ZM30.0236 42.9227C23.2708 42.9227 17.8437 37.61 17.8437 30.9999C17.8437 24.3897 23.271 19.0772 30.0236 19.0772C36.7764 19.0772 42.2035 24.3899 42.2035 30.9999C42.2035 37.6102 36.7766 42.9227 30.0236 42.9227Z" fill="white"/>
<circle cx="30" cy="31" r="8" fill="white"/>
</svg>
